<svg xmlns="http://www.w3.org/2000/svg" width="134.974" height="60.8" viewBox="36.304 33.89 134.974 60.8"><g data-name="グループ 47503"><g data-name="グループ 47502" transform="translate(36.304 33.89)" clip-path="url(&quot;#a&quot;)"><g data-name="グループ 47501"><g data-name="グループ 47500" clip-path="url(&quot;#b&quot;)"><path d="M72.56 60.8H2.856A2.856 2.856 0 0 1 0 57.942V3.19A2.856 2.856 0 0 1 2.856.333H72.56a2.856 2.856 0 0 1 2.856 2.856v54.754A2.856 2.856 0 0 1 72.56 60.8" fill="#fff" fill-rule="evenodd" data-name="パス 100244"/><g data-name="長方形 6813"><path d="M4.229 9.27h65.97v9.536H4.23V9.269z" fill="#fff" fill-rule="evenodd"/><path d="M4.229 9.27h65.97v9.536h0H4.23h0V9.269h0z" stroke-linejoin="round" stroke-linecap="round" stroke="#d5e8f8" fill="transparent"/></g><path d="M12.691 9.27h49.047v9.536H12.69V9.269z" fill="#419eb7" fill-rule="evenodd" data-name="長方形 6814"/><path d="M22.062 11.393h5.29v5.29h-5.29v-5.29z" fill="#fff" fill-rule="evenodd" data-name="長方形 6815"/><path d="M28.316 11.393h5.29v5.29h-5.29v-5.29z" fill="#fff" fill-rule="evenodd" data-name="長方形 6816"/><path d="M34.57 11.393h5.29v5.29h-5.29v-5.29z" fill="#efd9e4" fill-rule="evenodd" data-name="長方形 6817"/><path d="M40.823 11.393h5.29v5.29h-5.29v-5.29z" fill="#fff" fill-rule="evenodd" data-name="長方形 6818"/><path d="M47.076 11.393h5.29v5.29h-5.29v-5.29z" fill="#fff" fill-rule="evenodd" data-name="長方形 6819"/><path d="M53.329 11.393h5.29v5.29h-5.29v-5.29z" fill="#fff" fill-rule="evenodd" data-name="長方形 6820"/><path d="M15.81 11.393h5.29v5.29h-5.29v-5.29z" fill="#fff" fill-rule="evenodd" data-name="長方形 6821"/><g data-name="長方形 6822"><path d="M4.229 21.987h65.97v9.537H4.23v-9.537z" fill="#fff" fill-rule="evenodd"/><path d="M4.229 21.987h65.97v9.537h0H4.23h0v-9.537h0z" stroke-linejoin="round" stroke-linecap="round" stroke="#d5e8f8" fill="transparent"/></g><path d="M12.691 21.987h49.047v9.537H12.69v-9.537z" fill="#419eb7" fill-rule="evenodd" data-name="長方形 6823"/><path d="M22.062 24.11h5.29v5.29h-5.29v-5.29z" fill="#fff" fill-rule="evenodd" data-name="長方形 6824"/><path d="M28.316 24.11h5.29v5.29h-5.29v-5.29z" fill="#fff" fill-rule="evenodd" data-name="長方形 6825"/><path d="M34.57 24.11h5.29v5.29h-5.29v-5.29z" fill="#efd9e4" fill-rule="evenodd" data-name="長方形 6826"/><path d="M40.823 24.11h5.29v5.29h-5.29v-5.29z" fill="#fff" fill-rule="evenodd" data-name="長方形 6827"/><path d="M47.076 24.11h5.29v5.29h-5.29v-5.29z" fill="#fff" fill-rule="evenodd" data-name="長方形 6828"/><path d="M53.329 24.11h5.29v5.29h-5.29v-5.29z" fill="#fff" fill-rule="evenodd" data-name="長方形 6829"/><path d="M15.81 24.11h5.29v5.29h-5.29v-5.29z" fill="#fff" fill-rule="evenodd" data-name="長方形 6830"/><g data-name="長方形 6831"><path d="M4.229 34.703h65.97v9.537H4.23v-9.537z" fill="#fff" fill-rule="evenodd"/><path d="M4.229 34.703h65.97v9.537h0H4.23h0v-9.537h0z" stroke-linejoin="round" stroke-linecap="round" stroke="#d5e8f8" fill="transparent"/></g><path d="M12.691 34.703h49.047v9.537H12.69v-9.537z" fill="#419eb7" fill-rule="evenodd" data-name="長方形 6832"/><path d="M22.062 36.827h5.29v5.29h-5.29v-5.29z" fill="#fff" fill-rule="evenodd" data-name="長方形 6833"/><path d="M28.316 36.827h5.29v5.29h-5.29v-5.29z" fill="#fff" fill-rule="evenodd" data-name="長方形 6834"/><path d="M34.57 36.827h5.29v5.29h-5.29v-5.29z" fill="#efd9e4" fill-rule="evenodd" data-name="長方形 6835"/><path d="M40.823 36.827h5.29v5.29h-5.29v-5.29z" fill="#fff" fill-rule="evenodd" data-name="長方形 6836"/><path d="M47.076 36.827h5.29v5.29h-5.29v-5.29z" fill="#fff" fill-rule="evenodd" data-name="長方形 6837"/><path d="M53.329 36.827h5.29v5.29h-5.29v-5.29z" fill="#fff" fill-rule="evenodd" data-name="長方形 6838"/><path d="M15.81 36.827h5.29v5.29h-5.29v-5.29z" fill="#fff" fill-rule="evenodd" data-name="長方形 6839"/><path d="M56.558 14.297a.936.936 0 1 0-1.871 0 .936.936 0 0 0 1.87 0" fill="#d54086" fill-rule="evenodd" data-name="パス 100245"/><path d="M44.051 14.038a.936.936 0 1 0-1.87 0 .936.936 0 0 0 1.87 0" fill="#d6d73b" fill-rule="evenodd" data-name="パス 100246"/><path d="M31.544 26.625a.936.936 0 1 0-1.871 0 .936.936 0 0 0 1.871 0" fill="#d54086" fill-rule="evenodd" data-name="パス 100247"/><path d="M25.29 26.625a.936.936 0 1 0-1.87 0 .936.936 0 0 0 1.87 0" fill="#d6d73b" fill-rule="evenodd" data-name="パス 100248"/><path d="M50.305 39.94a.936.936 0 1 0-1.872 0 .936.936 0 0 0 1.872 0" fill="#d54086" fill-rule="evenodd" data-name="パス 100249"/><path d="M56.297 39.94a.936.936 0 1 0-1.87 0 .936.936 0 0 0 1.87 0" fill="#d6d73b" fill-rule="evenodd" data-name="パス 100250"/><g data-name="長方形 6840"><path d="M4.229 47.517h65.97v9.537H4.23v-9.537z" fill="#fff" fill-rule="evenodd"/><path d="M4.229 47.517h65.97v9.537h0H4.23h0v-9.537h0z" stroke-linejoin="round" stroke-linecap="round" stroke="#d5e8f8" fill="transparent"/></g><path d="M12.691 47.517h49.047v9.537H12.69v-9.537z" fill="#419eb7" fill-rule="evenodd" data-name="長方形 6841"/><path d="M22.062 49.64h5.29v5.29h-5.29v-5.29z" fill="#fff" fill-rule="evenodd" data-name="長方形 6842"/><path d="M28.316 49.64h5.29v5.29h-5.29v-5.29z" fill="#fff" fill-rule="evenodd" data-name="長方形 6843"/><path d="M34.57 49.64h5.29v5.29h-5.29v-5.29z" fill="#efd9e4" fill-rule="evenodd" data-name="長方形 6844"/><path d="M40.823 49.64h5.29v5.29h-5.29v-5.29z" fill="#fff" fill-rule="evenodd" data-name="長方形 6845"/><path d="M47.076 49.64h5.29v5.29h-5.29v-5.29z" fill="#fff" fill-rule="evenodd" data-name="長方形 6846"/><path d="M53.329 49.64h5.29v5.29h-5.29v-5.29z" fill="#fff" fill-rule="evenodd" data-name="長方形 6847"/><path d="M15.81 49.64h5.29v5.29h-5.29v-5.29z" fill="#fff" fill-rule="evenodd" data-name="長方形 6848"/><path d="M50.656 52.285a.936.936 0 1 0-1.871 0 .936.936 0 0 0 1.87 0" fill="#d54086" fill-rule="evenodd" data-name="パス 100251"/><path d="M25.643 52.285a.936.936 0 1 0-1.87 0 .936.936 0 0 0 1.87 0" fill="#d6d73b" fill-rule="evenodd" data-name="パス 100252"/><path d="M75.416 5.293H0V3.19A2.856 2.856 0 0 1 2.856.333H72.56a2.856 2.856 0 0 1 2.856 2.856v2.104Z" fill="#419eb7" fill-rule="evenodd" data-name="パス 100253"/><path d="M132.117 35.222H81.674a2.856 2.856 0 0 1-2.856-2.856V2.856A2.856 2.856 0 0 1 81.674 0h50.443a2.856 2.856 0 0 1 2.856 2.856v29.51a2.856 2.856 0 0 1-2.856 2.856" fill="#fff" fill-rule="evenodd" data-name="パス 100254"/><path d="M101.12 9.119h28.6v22.399h-28.6v-22.4z" fill="#fff" fill-rule="evenodd" data-name="長方形 6849"/><path d="M126.235 29.135h-21.593l10.796-18.7 10.797 18.7Zm-20.558-.598H125.2l-9.762-16.907-9.761 16.907Z" fill="#ccc" fill-rule="evenodd" data-name="パス 100255"/><path d="M115.14 11.033h.597v10.343h-.597V11.033z" fill="#ccc" fill-rule="evenodd" data-name="長方形 6850"/><path d="m105.335 29.078-.351-.483 10.279-7.46.35.483-10.278 7.46Z" fill="#ccc" fill-rule="evenodd" data-name="パス 100256"/><path d="m125.542 29.078-10.28-7.46.352-.483 10.279 7.46-.351.483Z" fill="#ccc" fill-rule="evenodd" data-name="パス 100257"/><g data-name="グループ 47499"><g data-name="グループ 47498"><g data-name="グループ 47497" transform="translate(108.04 14.068)" clip-path="url(&quot;#c&quot;)"><path d="M7.398.597.518 12.516h13.76L7.399.597Z" fill="#f3d2d3" fill-rule="evenodd" data-name="パス 100258"/><path d="M14.798 12.815H0L7.398 0l7.4 12.815Zm-13.763-.598h12.727L7.398 1.195 1.035 12.217Z" fill="#d54086" fill-rule="evenodd" data-name="パス 100259"/></g></g></g><path d="M84.075 9.374h13.84v5.363h-13.84V9.374z" fill="#f3d2d3" fill-rule="evenodd" data-name="長方形 6852"/><path d="M98.214 15.036H83.776v-5.96h14.438v5.96Zm-13.842-.598h13.244V9.673H84.372v4.765Z" fill="#d54086" fill-rule="evenodd" data-name="パス 100260"/><path d="M84.174 17.682h13.84v5.362h-13.84v-5.362z" fill="#fef8bc" fill-rule="evenodd" data-name="長方形 6853"/><path d="M98.314 23.343H83.875v-5.96h14.439v5.96Zm-13.841-.598h13.243V17.98H84.473v4.765Z" fill="#d6d73b" fill-rule="evenodd" data-name="パス 100261"/><path d="M84.075 26.155h13.84v5.363h-13.84v-5.363z" fill="#e4f2f7" fill-rule="evenodd" data-name="長方形 6854"/><path d="M98.214 31.816H83.776v-5.96h14.438v5.96Zm-13.842-.597h13.244v-4.766H84.372v4.766Z" fill="#419eb7" fill-rule="evenodd" data-name="パス 100262"/><path d="M134.974 4.96H78.82V2.856A2.856 2.856 0 0 1 81.675 0h50.444a2.856 2.856 0 0 1 2.855 2.856V4.96Z" fill="#419eb7" fill-rule="evenodd" data-name="パス 100263"/><path d="M131.792 60.8H81.35a2.856 2.856 0 0 1-2.856-2.857V40.948a2.857 2.857 0 0 1 2.856-2.856h50.443a2.857 2.857 0 0 1 2.856 2.856v16.995a2.856 2.856 0 0 1-2.856 2.856" fill="#fff" fill-rule="evenodd" data-name="パス 100264"/><path d="M134.648 43.052H78.493v-2.104a2.856 2.856 0 0 1 2.856-2.856h50.443a2.856 2.856 0 0 1 2.856 2.856v2.104Z" fill="#419eb7" fill-rule="evenodd" data-name="パス 100265"/><path d="M84.174 46.394h21.203v4.61H84.174v-4.61z" fill="#fff" fill-rule="evenodd" data-name="長方形 6855"/><path d="M105.676 51.302h-21.8v-5.208h21.8v5.208Zm-21.203-.597h20.605v-4.013H84.473v4.013Z" fill="#419eb7" fill-rule="evenodd" data-name="パス 100266"/><path d="M84.174 52.71h21.203v4.61H84.174v-4.61z" fill="#fff" fill-rule="evenodd" data-name="長方形 6856"/><path d="M105.676 57.618h-21.8v-5.207h21.8v5.207Zm-21.203-.597h20.605v-4.013H84.473v4.013Z" fill="#419eb7" fill-rule="evenodd" data-name="パス 100267"/><path d="M106.96 46.394h21.203v4.61H106.96v-4.61z" fill="#fff" fill-rule="evenodd" data-name="長方形 6857"/><path d="M128.462 51.302h-21.8v-5.208h21.8v5.208Zm-21.202-.597h20.606v-4.013H107.26v4.013Z" fill="#419eb7" fill-rule="evenodd" data-name="パス 100268"/><path d="M106.96 52.71h21.203v4.61H106.96v-4.61z" fill="#fff" fill-rule="evenodd" data-name="長方形 6858"/><path d="M128.462 57.618h-21.8v-5.207h21.8v5.207Zm-21.202-.597h20.606v-4.013H107.26v4.013Z" fill="#419eb7" fill-rule="evenodd" data-name="パス 100269"/></g></g></g></g><defs><clipPath id="c"><path d="M0 0h14.796v12.814H0V0z" data-name="長方形 6851"/></clipPath><clipPath id="b"><path d="M0 0h134.974v60.8H0V0z" data-name="長方形 6859"/></clipPath><clipPath id="a"><path d="M0 0h134.974v60.8H0V0z" data-name="長方形 6860"/></clipPath></defs></svg>