<svg xmlns="http://www.w3.org/2000/svg" width="107.5" height="56.5" viewBox="50 30 107.5 56.5"><g data-name="グループ 47553"><g data-name="長方形 6929"><path d="M50 30h107v56H50V30z" fill="#fff" fill-rule="evenodd"/><path d="M0 0h107v56h0H0h0V0h0z" stroke-linejoin="round" stroke-linecap="round" stroke="#e1e8ef" fill="transparent" transform="matrix(.99065 0 0 .98214 50.5 30.5)"/></g><path d="M50.5 58.5h107" stroke-dasharray="1" stroke-linejoin="round" stroke-linecap="round" stroke="#e1e8ef" fill="transparent" data-name="線 1979"/><path d="M50.5 43.5h107" stroke-dasharray="1" stroke-linejoin="round" stroke-linecap="round" stroke="#e1e8ef" fill="transparent" data-name="線 1980"/><path d="M50.5 72.5h107" stroke-dasharray="1" stroke-linejoin="round" stroke-linecap="round" stroke="#e1e8ef" fill="transparent" data-name="線 1981"/><path d="M120.5 86.5v-56" stroke-dasharray="1" stroke-linejoin="round" stroke-linecap="round" stroke="#e1e8ef" fill="transparent" data-name="線 1983"/><path d="M139.5 86.5v-56" stroke-dasharray="1" stroke-linejoin="round" stroke-linecap="round" stroke="#e1e8ef" fill="transparent" data-name="線 1984"/><path d="M66.5 86.5v-56" stroke-dasharray="1" stroke-linejoin="round" stroke-linecap="round" stroke="#e1e8ef" fill="transparent" data-name="線 1985"/><path d="M85.5 86.5v-56" stroke-dasharray="1" stroke-linejoin="round" stroke-linecap="round" stroke="#e1e8ef" fill="transparent" data-name="線 1986"/><path d="M103.5 86.5v-56" stroke-dasharray="1" stroke-linejoin="round" stroke-linecap="round" stroke="#e1e8ef" fill="transparent" data-name="線 1982"/><path d="M58.657 47.867h5.064v10.761h-5.064v-10.76z" fill="#e4e04a" fill-rule="evenodd" data-name="長方形 6876"/><path d="M66.254 58.627h5.063v6.725h-5.063v-6.725z" fill="#aadef0" fill-rule="evenodd" data-name="長方形 6878"/><path d="M72.812 42.655h5.064v15.972h-5.064V42.655z" fill="#e4e04a" fill-rule="evenodd" data-name="長方形 6879"/><path d="M80.139 37.106h5.063v21.521H80.14V37.106z" fill="#e4e04a" fill-rule="evenodd" data-name="長方形 6880"/><path d="M87.076 58.627h5.063v18.267h-5.063V58.627z" fill="#aadef0" fill-rule="evenodd" data-name="長方形 6881"/><path d="M137.156 58.587h5.063v16.486h-5.063V58.587z" fill="#aadef0" fill-rule="evenodd" data-name="長方形 6882"/><path d="M101.158 50.642h4.684v7.986h-4.684v-7.986z" fill="#e4e04a" fill-rule="evenodd" data-name="長方形 6883"/><path d="M108.587 54.634h4.684v3.993h-4.684v-3.993z" fill="#e4e04a" fill-rule="evenodd" data-name="長方形 6884"/><path d="M115.636 58.627h5.063v8.67h-5.063v-8.67z" fill="#aadef0" fill-rule="evenodd" data-name="長方形 6885"/><path d="M122.667 49.999h5.063v8.67h-5.063v-8.67z" fill="#aadef0" fill-rule="evenodd" data-name="長方形 6886"/><path d="M130.143 59.074h5.063v10.224h-5.063V59.074z" fill="#e4e04a" fill-rule="evenodd" data-name="長方形 6887"/><path d="M93.897 38.914h5.063v19.267h-5.063V38.914z" fill="#e4e04a" fill-rule="evenodd" data-name="長方形 6888"/><path d="M142.618 47.511h5.063v10.671h-5.063v-10.67z" fill="#e4e04a" fill-rule="evenodd" data-name="長方形 6889"/><path d="M55.88 58.627h95.225" stroke-linejoin="round" stroke-linecap="round" stroke="#afafaf" fill="transparent" data-name="線 1978"/></g></svg>