<svg xmlns="http://www.w3.org/2000/svg" width="107.271" height="56.256" viewBox="56.251 36 107.271 56.256"><g data-name="グループ 47550"><path d="M56.521 36h107v56h-107V36z" fill="#fff" fill-rule="evenodd" data-name="長方形 6926"/><path d="M56.251 36v28.284h2.301V38.302h51.196V36H56.25Z" fill="#6db0aa" fill-rule="evenodd" data-name="パス 100524"/><path d="M56.251 63.972v28.284h53.497v-2.301H58.552V63.972h-2.301Z" fill="#db8fb5" fill-rule="evenodd" data-name="パス 100525"/><path d="M160.941 63.972v25.983h-51.194v2.301h53.496V63.972h-2.302Z" fill="#8cc5d1" fill-rule="evenodd" data-name="パス 100526"/><path d="M109.747 36v2.302h51.194v25.982h2.302V36h-53.496Z" fill="#f2efaa" fill-rule="evenodd" data-name="パス 100527"/><path d="M71.21 63.234H147v1.15H71.21v-1.15z" fill="#dee4e9" fill-rule="evenodd" data-name="長方形 6872"/><path d="M108.53 45.647h1.15v36.325h-1.15V45.647z" fill="#dee4e9" fill-rule="evenodd" data-name="長方形 6873"/><g data-name="グループ 47549"><g data-name="グループ 47548" transform="translate(56.251 36)" clip-path="url(&quot;#a&quot;)"><path d="M28.735 20.267a2.07 2.07 0 1 0-4.139-.002 2.07 2.07 0 0 0 4.14.002" fill="#f2efaa" fill-rule="evenodd" data-name="パス 100528"/><path d="M77.983 37.517a2.095 2.095 0 1 0-4.189 0 2.095 2.095 0 0 0 4.19 0" fill="#f2efaa" fill-rule="evenodd" data-name="パス 100529"/><path d="M45.933 23.326a2.07 2.07 0 1 0-4.14 0 2.07 2.07 0 0 0 4.14 0" fill="#f2efaa" fill-rule="evenodd" data-name="パス 100530"/><path d="M60.882 22.36a2.07 2.07 0 1 0-4.139 0 2.07 2.07 0 0 0 4.14 0" fill="#f2efaa" fill-rule="evenodd" data-name="パス 100531"/><path d="M39.1 38.462a2.07 2.07 0 1 0-4.138-.001 2.07 2.07 0 0 0 4.139.001" fill="#f2efaa" fill-rule="evenodd" data-name="パス 100532"/><path d="M83.858 27.81a2.095 2.095 0 1 0-4.19 0 2.095 2.095 0 0 0 4.19 0" fill="#f2efaa" fill-rule="evenodd" data-name="パス 100533"/><path d="M55.567 15.707a2.07 2.07 0 1 0-4.14-.001 2.07 2.07 0 0 0 4.14.001" fill="#f2efaa" fill-rule="evenodd" data-name="パス 100534"/><path d="M65.022 31.554a2.07 2.07 0 1 0-4.139-.001 2.07 2.07 0 0 0 4.14.001" fill="#f2efaa" fill-rule="evenodd" data-name="パス 100535"/><path d="m67.366 18.197 4.261-4.262 4.261 4.262-4.261 4.26-4.261-4.26z" fill="#e73e8f" fill-rule="evenodd" data-name="長方形 6874"/></g></g></g><defs><clipPath id="a"><path d="M0 0h106.992v56.256H0V0z" data-name="長方形 6875"/></clipPath></defs></svg>