<svg xmlns="http://www.w3.org/2000/svg" width="108.621" height="57.113" viewBox="53.919 29.774 108.621 57.113"><g data-name="グループ 47556"><path d="M55.333 30h107v56h-107V30z" fill="#fff" fill-rule="evenodd" data-name="長方形 6927"/><path d="M53.919 29.774V58.49h2.336V32.111h51.975v-2.337H53.92Z" fill="#6db0aa" fill-rule="evenodd" data-name="パス 100536"/><path d="M53.919 58.173v28.714h54.311v-2.336H56.255V58.173H53.92Z" fill="#db8fb5" fill-rule="evenodd" data-name="パス 100537"/><path d="M160.203 58.173V84.55h-51.974v2.336h54.31V58.173h-2.336Z" fill="#8cc5d1" fill-rule="evenodd" data-name="パス 100538"/><path d="M108.23 29.774v2.337h51.973v26.378h2.337V29.774h-54.31Z" fill="#f2efaa" fill-rule="evenodd" data-name="パス 100539"/><path d="M69.106 57.423h76.943v1.168H69.106v-1.168z" fill="#dee4e9" fill-rule="evenodd" data-name="長方形 6891"/><path d="M106.994 39.568h1.168v36.878h-1.168V39.568z" fill="#dee4e9" fill-rule="evenodd" data-name="長方形 6892"/><g data-name="グループ 47555"><g data-name="グループ 47554" transform="translate(53.919 29.775)" clip-path="url(&quot;#a&quot;)"><path d="M29.173 20.575a2.101 2.101 0 1 0-4.205 0c0 1.161.94 2.102 2.102 2.102s2.103-.94 2.103-2.102" fill="#db8fb5" fill-rule="evenodd" data-name="パス 100540"/><path d="M79.17 38.088a2.126 2.126 0 1 0-4.252 0 2.126 2.126 0 0 0 4.252 0" fill="#db8fb5" fill-rule="evenodd" data-name="パス 100541"/><path d="M46.632 23.682a2.101 2.101 0 1 0-4.202-.002 2.101 2.101 0 0 0 4.202.002" fill="#f2efaa" fill-rule="evenodd" data-name="パス 100542"/><path d="M61.809 22.701a2.101 2.101 0 1 0-4.202-.001 2.101 2.101 0 0 0 4.202.001" fill="#f2efaa" fill-rule="evenodd" data-name="パス 100543"/><path d="M39.696 39.048a2.101 2.101 0 1 0-4.202-.002 2.101 2.101 0 0 0 4.202.002" fill="#8cc5d1" fill-rule="evenodd" data-name="パス 100544"/><path d="M85.134 28.233a2.126 2.126 0 1 0-4.252 0 2.126 2.126 0 0 0 4.252 0" fill="#8cc5d1" fill-rule="evenodd" data-name="パス 100545"/><path d="M56.413 15.946a2.101 2.101 0 1 0-4.202 0 2.101 2.101 0 0 0 4.202 0" fill="#8cc5d1" fill-rule="evenodd" data-name="パス 100546"/><path d="M66.012 32.035a2.101 2.101 0 1 0-4.202-.002 2.101 2.101 0 0 0 4.202.002" fill="#8cc5d1" fill-rule="evenodd" data-name="パス 100547"/></g></g></g><defs><clipPath id="a"><path d="M0 0h108.621v57.113H0V0z" data-name="長方形 6893"/></clipPath></defs></svg>