<svg xmlns="http://www.w3.org/2000/svg" width="134.444" height="52.384" viewBox="43 31.616 134.444 52.384"><g data-name="グループ 47565"><g data-name="グループ 47564" transform="translate(43 31.616)" clip-path="url(&quot;#a&quot;)"><path d="M131.603 52.384H2.841A2.841 2.841 0 0 1 0 49.544V2.84A2.841 2.841 0 0 1 2.841.001h128.762a2.841 2.841 0 0 1 2.841 2.84v46.702a2.841 2.841 0 0 1-2.84 2.841" fill="#e7f2f6" fill-rule="evenodd" data-name="パス 100576"/><path d="M39.581 46.62H8.515a2.841 2.841 0 0 1-2.841-2.841V10.994a2.841 2.841 0 0 1 2.841-2.841h31.066a2.841 2.841 0 0 1 2.841 2.84V43.78a2.841 2.841 0 0 1-2.84 2.841" fill="#fff" fill-rule="evenodd" data-name="パス 100577"/><path d="M82.755 46.62H51.689a2.841 2.841 0 0 1-2.842-2.841V10.994a2.841 2.841 0 0 1 2.842-2.841h31.066a2.841 2.841 0 0 1 2.84 2.84V43.78a2.841 2.841 0 0 1-2.84 2.841" fill="#fff" fill-rule="evenodd" data-name="パス 100578"/><path d="M125.311 46.62H94.245a2.841 2.841 0 0 1-2.841-2.841V10.994a2.841 2.841 0 0 1 2.841-2.841h31.066a2.841 2.841 0 0 1 2.841 2.84V43.78a2.841 2.841 0 0 1-2.84 2.841" fill="#fff" fill-rule="evenodd" data-name="パス 100579"/><path d="M42.422 14.255H5.674v-3.261a2.841 2.841 0 0 1 2.841-2.841H39.58a2.842 2.842 0 0 1 2.842 2.84v3.262Z" fill="#5ca5bf" fill-rule="evenodd" data-name="パス 100580"/><path d="M85.596 14.255H48.847v-3.261a2.841 2.841 0 0 1 2.842-2.841h31.066a2.841 2.841 0 0 1 2.84 2.84v3.262Z" fill="#5ca5bf" fill-rule="evenodd" data-name="パス 100581"/><path d="M128.152 14.255H91.404v-3.261a2.841 2.841 0 0 1 2.841-2.841h31.066a2.841 2.841 0 0 1 2.841 2.84v3.262Z" fill="#5ca5bf" fill-rule="evenodd" data-name="パス 100582"/><path d="M22.878 32.201a9.887 9.887 0 0 0-1.308-.091h-.47v.928c0 .666.026 1.006.104 1.491h-1.857c.079-.458.105-.863.105-1.518v-.901h-3.624c-.771 0-1.19.012-1.634.051v-1.608c.444-.483.59-.654 1.046-1.203l3.1-3.793c.576-.693.785-.968 1.086-1.438h1.765c-.079.758-.092 1.215-.092 2.21v4.29h.458c.523 0 .837-.027 1.32-.093v1.675Zm-3.413-4.277c0-.614.013-1.033.065-1.569-.261.38-.418.589-.889 1.164l-2.512 3.112h3.336v-2.707Z" fill="#777" fill-rule="evenodd" data-name="パス 100583"/><path d="M25.596 31.691c.17.602.288.811.615 1.072.432.34.955.51 1.582.51 1.296 0 2.119-.666 2.119-1.7 0-.6-.262-1.098-.733-1.373-.313-.182-.928-.314-1.503-.314-.576 0-.955.013-1.4.065V28.33c.419.052.707.066 1.269.066 1.307 0 2.079-.602 2.079-1.61 0-.902-.615-1.412-1.726-1.412-.64 0-1.112.144-1.425.405-.262.25-.393.472-.55 1.008l-1.87-.314c.327-.968.628-1.426 1.243-1.87.667-.484 1.517-.72 2.563-.72 2.183 0 3.597 1.098 3.597 2.799 0 .785-.34 1.504-.904 1.922-.287.223-.574.328-1.267.51.927.144 1.412.368 1.87.876.432.485.628 1.033.628 1.806 0 .706-.301 1.425-.786 1.908-.72.694-1.818 1.06-3.217 1.06-1.53 0-2.576-.392-3.321-1.242-.327-.367-.497-.707-.732-1.464l1.87-.367Z" fill="#777" fill-rule="evenodd" data-name="パス 100584"/><path d="M56.421 31.691c.17.602.288.811.615 1.072.431.34.954.51 1.582.51 1.296 0 2.118-.666 2.118-1.7 0-.6-.261-1.098-.732-1.373-.314-.182-.928-.314-1.504-.314-.575 0-.954.013-1.399.065V28.33c.418.052.706.066 1.268.066 1.308 0 2.08-.602 2.08-1.61 0-.902-.615-1.412-1.726-1.412-.641 0-1.112.144-1.426.405-.261.25-.392.472-.549 1.008l-1.87-.314c.327-.968.628-1.426 1.242-1.87.667-.484 1.517-.72 2.563-.72 2.184 0 3.597 1.098 3.597 2.799 0 .785-.34 1.504-.903 1.922-.288.223-.574.328-1.267.51.927.144 1.412.368 1.87.876.431.485.627 1.033.627 1.806 0 .706-.3 1.425-.785 1.908-.72.694-1.818 1.06-3.217 1.06-1.53 0-2.576-.392-3.322-1.242-.326-.367-.496-.707-.732-1.464l1.87-.367Z" fill="#777" fill-rule="evenodd" data-name="パス 100585"/><path d="M70.035 26.669c-.341-.956-.825-1.32-1.754-1.32-.928 0-1.608.457-2.053 1.358-.327.681-.47 1.309-.536 2.316.706-.955 1.478-1.308 2.799-1.308 1.333 0 2.46.574 3.034 1.556.314.51.471 1.191.471 1.962 0 2.066-1.57 3.531-3.793 3.531-1.046 0-2.014-.313-2.655-.864-.967-.837-1.516-2.405-1.516-4.38 0-1.609.405-3.153 1.072-4.042.771-1.046 1.817-1.555 3.19-1.555 1.126 0 2.053.34 2.682.994.34.352.536.652.823 1.334l-1.764.418Zm-4.081 4.564c0 1.19.928 2.066 2.21 2.066.758 0 1.425-.34 1.791-.914.196-.301.302-.733.302-1.192 0-1.294-.773-2.053-2.067-2.053-1.282 0-2.236.89-2.236 2.093" fill="#777" fill-rule="evenodd" data-name="パス 100586"/><path d="M75.716 28.446c-.328 0-.628.016-.919.043v-.842c.263.03.562.043.912.043h4.584a8.5 8.5 0 0 0 .913-.043v.842a9.34 9.34 0 0 0-.906-.043h-2.674c-.014.556-.021.713-.064 1.106h2.046c.42 0 .699-.007.913-.037-.022.165-.022.172-.043.806-.05 1.255-.193 2.388-.37 2.823-.18.442-.493.6-1.198.6-.235 0-.385-.008-1.013-.058a2.75 2.75 0 0 0-.192-.812c.413.085.841.142 1.12.142.349 0 .477-.057.556-.257.141-.35.241-1.218.291-2.458h-2.217c-.15.847-.384 1.475-.79 2.131-.379.598-.757.99-1.398 1.446a2.511 2.511 0 0 0-.598-.684c.52-.335.783-.57 1.097-.976.5-.649.806-1.405.948-2.354.07-.47.079-.54.1-1.418h-1.098Z" fill="#777" fill-rule="evenodd" data-name="パス 100587"/><path d="M104.1 30.03c0-.615.013-1.112.052-1.426a9.9 9.9 0 0 1-1.046 1.427 8.044 8.044 0 0 0-.601-1.597c.915-.954 1.582-2 2.105-3.321.248-.616.459-1.32.537-1.858l1.504.38c-.51 1.582-.655 1.949-1.178 2.982v7.324c0 .588.026 1.02.067 1.516h-1.518c.065-.536.078-.902.078-1.53v-3.896Zm4.356-1.228v2.64c1.137-.262 1.294-.3 2.314-.602v1.296c-1.53.497-2.314.693-4.054 1.06-.25.052-.353.078-.55.13l-.208-1.478c.392-.014.392-.014 1.123-.143v-6.017c0-.654-.012-.889-.05-1.19h.313c1.962 0 4.8-.575 5.899-1.203l1.07 1.282c-1.608.497-1.608.497-2.47.667.012.915.012.928.078 2.157l1.451-.052c.668-.013.878-.026 1.257-.105l.026 1.426c-.366-.025-.511-.025-.915-.025-.185 0-.29 0-.368.012l-1.333.04c.118.876.287 1.542.575 2.196.38.877.799 1.452 1.06 1.452.078 0 .157-.078.21-.209.064-.144.13-.562.156-1.02 0-.04.013-.276.04-.706a4.93 4.93 0 0 0 1.059.85c-.092.955-.222 1.555-.445 2.066-.183.418-.524.667-.928.667-.667 0-1.557-.85-2.185-2.067-.445-.89-.72-1.843-.89-3.19l-2.235.066Zm-1.805 4.825c.275.039.536.052.994.052h3.818c.602 0 1.046-.026 1.335-.065v1.412c-.444-.065-.786-.078-1.335-.078h-3.517c-.589 0-.903.013-1.295.078v-1.4Zm3.923-6.187c-.04-.366-.052-.784-.105-1.948-.797.118-1.085.144-2.013.21v1.79l2.118-.052Z" fill="#777" fill-rule="evenodd" data-name="パス 100588"/></g></g><defs><clipPath id="a"><path d="M0 0h134.444v52.384H0V0z" data-name="長方形 6924"/></clipPath></defs></svg>