<svg xmlns="http://www.w3.org/2000/svg" width="112.187" height="41.749" viewBox="52.805 42.712 112.187 41.749"><g data-name="グループ 47547"><g data-name="グループ 47628"><path d="M52.992 42.712h112v5.342h-112v-5.342z" fill="#419eb7" fill-rule="evenodd" data-name="長方形 6862"/><path d="M52.992 49.243h112v7.617h-112v-7.617z" fill="#fff" fill-rule="evenodd" data-name="長方形 6863"/><path d="M60.142 51.598c-.169.164-.322.381-.551.763-.56.937-.841 1.748-.984 2.865h-.837c.174-.885.333-1.393.64-2.05.244-.524.461-.885.927-1.54h-1.636c-.314 0-.477.01-.695.036v-.7c.245.028.414.038.726.038h1.684c.398 0 .536-.006.726-.027v.615Z" fill="#777" fill-rule="evenodd" data-name="パス 100512"/><path d="M61.135 52.726a1.014 1.014 0 0 1-.26-.698c0-.679.574-1.107 1.48-1.107.64 0 1.11.206 1.34.577.09.148.142.34.142.53 0 .492-.28.852-.763.99.238.032.398.101.573.25.249.2.37.475.37.826 0 .788-.593 1.223-1.68 1.223-.613 0-1.038-.132-1.34-.424-.195-.19-.306-.476-.306-.794 0-.371.143-.662.434-.869.174-.122.307-.176.525-.212a1.025 1.025 0 0 1-.515-.292m2.135 1.315c0-.44-.344-.705-.915-.705-.573 0-.923.27-.923.71 0 .434.34.688.912.688.593 0 .926-.249.926-.693m-1.684-1.94c0 .387.296.63.778.63.472 0 .758-.238.758-.624 0-.377-.296-.615-.767-.615-.467 0-.769.238-.769.61" fill="#777" fill-rule="evenodd" data-name="パス 100513"/><path d="M69.56 51.86h87.428v1.308H69.56V51.86z" fill="#e73e8f" fill-rule="evenodd" data-name="長方形 6864"/><path d="M105.078 52.514a1.55 1.55 0 1 1-3.101 0 1.55 1.55 0 0 1 3.101 0" fill="#e2e100" fill-rule="evenodd" data-name="パス 100514"/><path d="M52.805 58.455h112v7.616h-112v-7.616z" fill="#fff" fill-rule="evenodd" data-name="長方形 6865"/><path d="M57.556 63.342a.736.736 0 0 0 .158.308c.15.179.37.269.652.269.524 0 .868-.35.868-.873 0-.52-.328-.853-.83-.853a.933.933 0 0 0-.658.243.603.603 0 0 0-.159.24l-.661-.064c.053-.377.057-.403.069-.552l.12-1.313c.007-.095.017-.275.023-.54.158.01.28.015.56.015h1.305c.365 0 .497-.005.735-.042v.667a5.076 5.076 0 0 0-.73-.042h-1.246l-.085.927c-.005.043-.015.117-.031.223.26-.223.54-.324.906-.324.428 0 .773.127 1.033.398.259.254.375.571.375.996 0 .932-.608 1.509-1.594 1.509-.523 0-.916-.148-1.207-.46-.143-.155-.218-.282-.334-.578l.73-.154Z" fill="#777" fill-rule="evenodd" data-name="パス 100515"/><path d="M63.924 63.496a3.912 3.912 0 0 0-.53-.036h-.19v.375c0 .27.011.408.043.604h-.753c.032-.186.043-.35.043-.614v-.365h-1.468c-.313 0-.482.004-.662.02v-.651c.18-.196.238-.266.423-.488l1.256-1.536c.234-.28.318-.391.44-.583h.715a7.232 7.232 0 0 0-.038.895v1.738h.187c.211 0 .338-.01.534-.037v.678Zm-1.382-1.732c0-.249.005-.42.026-.636a5.99 5.99 0 0 1-.36.472l-1.017 1.26h1.35v-1.096Z" fill="#777" fill-rule="evenodd" data-name="パス 100516"/><path d="M69.372 61.071h62.215v1.308H69.372v-1.308z" fill="#e73e8f" fill-rule="evenodd" data-name="長方形 6866"/><path d="M127.821 61.726a1.55 1.55 0 1 1-3.101 0 1.55 1.55 0 0 1 3.101 0" fill="#e2e100" fill-rule="evenodd" data-name="パス 100517"/><path d="M52.805 67.376h112v7.616h-112v-7.616z" fill="#fff" fill-rule="evenodd" data-name="長方形 6867"/><path d="M57.567 72.339c.064.153.1.222.163.29.133.144.34.218.61.218.253 0 .45-.07.598-.217.265-.254.386-.636.414-1.26a1.05 1.05 0 0 1-.282.3c-.237.165-.507.244-.858.244-.879 0-1.44-.54-1.44-1.393 0-.54.239-.98.673-1.244.244-.154.562-.233.926-.233a1.5 1.5 0 0 1 1.456 1.042c.102.287.155.663.155 1.098 0 .799-.211 1.499-.562 1.837-.28.28-.625.403-1.128.403-.444 0-.757-.095-1.022-.306-.18-.144-.28-.282-.434-.589l.731-.19Zm1.663-1.86c0-.498-.365-.853-.89-.853-.508 0-.863.36-.863.869 0 .513.329.848.842.848.518 0 .911-.372.911-.864" fill="#777" fill-rule="evenodd" data-name="パス 100518"/><path d="M61.25 73.36c-.414 0-.499.005-.684.026.032-.301.069-.488.137-.678.144-.386.383-.725.726-1.038.186-.163.346-.286.875-.64.488-.335.635-.51.635-.78 0-.36-.28-.582-.73-.582-.307 0-.541.106-.674.312-.09.127-.127.244-.164.487l-.758-.09c.075-.402.17-.619.367-.847.264-.307.682-.471 1.213-.471.927 0 1.498.444 1.498 1.17 0 .35-.116.605-.375.848-.149.138-.202.18-.89.65a4.792 4.792 0 0 0-.631.531c-.16.17-.223.275-.302.477h1.483c.334 0 .599-.015.774-.042v.699a8.576 8.576 0 0 0-.8-.032h-1.7Z" fill="#777" fill-rule="evenodd" data-name="パス 100519"/><path d="M69.373 69.992h80.02V71.3h-80.02v-1.308z" fill="#e73e8f" fill-rule="evenodd" data-name="長方形 6868"/><path d="M145.838 70.647a1.55 1.55 0 1 1-3.101 0 1.55 1.55 0 0 1 3.101 0" fill="#e2e100" fill-rule="evenodd" data-name="パス 100520"/><path d="M52.805 76.844h112v7.617h-112v-7.617z" fill="#fff" fill-rule="evenodd" data-name="長方形 6869"/><path d="M57.487 81.679c.069.243.116.328.249.434a.996.996 0 0 0 .641.206c.524 0 .857-.27.857-.688 0-.243-.104-.444-.296-.556-.127-.074-.376-.127-.609-.127-.232 0-.386.005-.567.026v-.657c.17.022.286.027.514.027.53 0 .843-.244.843-.652 0-.365-.25-.571-.7-.571-.259 0-.45.058-.578.164-.105.1-.158.19-.222.407l-.758-.127c.134-.392.254-.576.504-.757.27-.196.614-.292 1.039-.292.884 0 1.456.445 1.456 1.134 0 .318-.138.61-.365.779-.117.09-.233.132-.515.206.377.059.573.149.758.355.175.197.254.42.254.731 0 .286-.122.577-.317.774-.291.28-.737.429-1.303.429-.62 0-1.044-.16-1.347-.503-.132-.148-.2-.287-.296-.594l.758-.148Z" fill="#777" fill-rule="evenodd" data-name="パス 100521"/><path d="M61.335 81.806c.064.153.1.222.163.291.134.143.34.217.61.217.254 0 .45-.069.599-.217.265-.254.386-.636.413-1.26-.1.148-.159.211-.28.301-.239.164-.509.244-.86.244-.879 0-1.44-.54-1.44-1.393 0-.54.239-.98.673-1.245.243-.153.562-.233.927-.233.678 0 1.234.397 1.457 1.043.1.287.154.662.154 1.097 0 .8-.212 1.499-.562 1.838-.28.28-.625.403-1.129.403-.444 0-.758-.095-1.022-.307-.18-.144-.28-.282-.434-.589l.731-.19Zm1.663-1.86c0-.497-.365-.853-.89-.853-.508 0-.864.361-.864.87 0 .513.33.847.843.847.52 0 .911-.371.911-.864" fill="#777" fill-rule="evenodd" data-name="パス 100522"/><path d="M69.373 79.46H156.8v1.309H69.373v-1.308z" fill="#e73e8f" fill-rule="evenodd" data-name="長方形 6870"/><path d="M122.874 80.115a1.55 1.55 0 1 1-3.101 0 1.55 1.55 0 0 1 3.101 0" fill="#e2e100" fill-rule="evenodd" data-name="パス 100523"/></g></g></svg>