<svg xmlns="http://www.w3.org/2000/svg" width="104.503" height="44.417" viewBox="57.749 35.583 104.503 44.417"><g data-name="グループ 47558"><path d="m76.993 63.184-1.18-.635 16.749-8.884 1.18.635-16.749 8.884Z" fill="#afafaf" fill-rule="evenodd" data-name="パス 100550"/><path d="m109.887 62.566 8.285-9.123.68.618-8.284 9.123-.68-.618z" fill="#afafaf" fill-rule="evenodd" data-name="長方形 6910"/><path d="m134.914 62.673 4.591-9.132.822.413-4.592 9.132-.821-.413z" fill="#afafaf" fill-rule="evenodd" data-name="長方形 6911"/><path d="M58.208 62.052h17.605v14.034H58.208V62.052z" fill="#4aa5ca" fill-rule="evenodd" data-name="長方形 6912"/><path d="M75.812 62.052h34.417v14.034H75.812V62.052z" fill="#d74b8b" fill-rule="evenodd" data-name="長方形 6913"/><path d="M110.23 62.052h26.01v14.034h-26.01V62.052z" fill="#e1754b" fill-rule="evenodd" data-name="長方形 6914"/><path d="M136.241 62.052h26.01v14.034h-26.01V62.052z" fill="#e4e04a" fill-rule="evenodd" data-name="長方形 6915"/><path d="M58.208 40.54h35.21v14.035h-35.21V40.54z" fill="#4aa5ca" fill-rule="evenodd" data-name="長方形 6916"/><path d="M93.419 40.54h25.09v14.035H93.42V40.54z" fill="#d74b8b" fill-rule="evenodd" data-name="長方形 6917"/><path d="M118.509 40.54h21.411v14.035H118.51V40.54z" fill="#e1754b" fill-rule="evenodd" data-name="長方形 6918"/><path d="M139.92 40.54h22.331v14.035h-22.33V40.54z" fill="#e4e04a" fill-rule="evenodd" data-name="長方形 6919"/><path d="M57.749 35.583h.92V80h-.92V35.583Z" fill="#afafaf" fill-rule="evenodd" data-name="パス 100812"/></g></svg>