<svg xmlns="http://www.w3.org/2000/svg" width="122.091" height="137.403" viewBox="345.559 86.261 122.091 137.403"><g data-name="アートワーク 8"><g data-name="グループ 46523"><g data-name="グループ 46520"><g data-name="グループ 46490"><path d="m412.024 143.346-62.99 29.584c-1.617.76-3.475-.42-3.475-2.206v-38.062a5.92 5.92 0 0 1 3.403-5.358l62.955-29.568c1.52-.714 3.266.395 3.266 2.074v38.562a5.495 5.495 0 0 1-3.16 4.974Z" fill="#1788dd" fill-rule="evenodd" data-name="パス 98412"/><path d="M410.875 127.062s-10.304 18.235-19.951 7.592c-6.959-7.678-12.044-6.734-17.706-3.07-6.301 4.077-8.451 13.491-17.124 6.671-8.673-6.82-7.932 1.853-7.932 1.853" stroke-linejoin="round" stroke-linecap="round" stroke-width=".861" stroke="#fbfbfb" fill="transparent" data-name="パス 98413"/><g data-name="グループ 46488"><path d="m401.61 111.908 8.161-3.828c.336-.155.61-.557.61-.892 0-.336-.274-.483-.61-.328l-8.162 3.828c-.335.155-.61.557-.61.892 0 .336.275.483.61.328Z" fill="#fdfdfd" fill-rule="evenodd" data-name="パス 98414"/><path d="m401.61 123.004 8.161-3.827c.336-.156.61-.557.61-.893 0-.335-.274-.483-.61-.327l-8.162 3.827c-.335.155-.61.557-.61.893 0 .335.275.483.61.327Z" fill="#fdfdfd" fill-rule="evenodd" data-name="パス 98415"/><path d="m391.48 120.418 18.291-8.448c.336-.156.61-.558.61-.893 0-.336-.274-.483-.61-.327l-18.29 8.449c-.336.155-.61.557-.61.892 0 .336.274.483.61.327Z" fill="#fdfdfd" fill-rule="evenodd" data-name="パス 98416"/><path d="m391.48 124.308 18.291-8.449c.336-.156.61-.557.61-.893 0-.335-.274-.482-.61-.327l-18.29 8.449c-.336.155-.61.557-.61.892 0 .336.274.483.61.328Z" fill="#fdfdfd" fill-rule="evenodd" data-name="パス 98417"/></g><g data-name="グループ 46489"><path d="m360.34 152.151 8.163-3.827c.335-.155.61-.557.61-.892 0-.336-.275-.483-.61-.328l-8.163 3.828c-.335.155-.61.557-.61.892 0 .336.275.483.61.327Z" fill="#fdfdfd" fill-rule="evenodd" data-name="パス 98418"/><path d="m360.34 163.248 8.163-3.827c.335-.156.61-.557.61-.893 0-.336-.275-.483-.61-.327l-8.163 3.827c-.335.155-.61.557-.61.893 0 .335.275.482.61.327Z" fill="#fdfdfd" fill-rule="evenodd" data-name="パス 98419"/><path d="m350.212 160.662 18.29-8.448c.336-.156.61-.558.61-.893 0-.335-.274-.483-.61-.327l-18.29 8.448c-.335.156-.61.558-.61.893 0 .335.275.483.61.327Z" fill="#fdfdfd" fill-rule="evenodd" data-name="パス 98420"/><path d="m350.212 164.552 18.29-8.45c.336-.155.61-.556.61-.892 0-.335-.274-.483-.61-.327l-18.29 8.449c-.335.155-.61.557-.61.892 0 .336.275.483.61.328Z" fill="#fdfdfd" fill-rule="evenodd" data-name="パス 98421"/></g></g><g data-name="グループ 46510"><path d="m463.652 710.515-62.99 29.584c-1.618.76-3.475-.42-3.475-2.206V699.83a5.92 5.92 0 0 1 3.403-5.358l62.955-29.568c1.52-.714 3.266.395 3.266 2.075v38.561a5.495 5.495 0 0 1-3.16 4.974Z" fill-rule="evenodd" fill="url(&quot;#a&quot;)" transform="translate(-49.813 -516.67)" data-name="パス 98422"/><g data-name="グループ 46491"><path d="M392.023 175.85c0 3.806 3.086 5.35 6.893 3.446 3.807-1.904 6.893-6.533 6.893-10.34 0-3.807-3.086-5.35-6.893-3.447-3.807 1.904-6.893 6.533-6.893 10.34Zm1.408-.705c0-3.029 2.456-6.713 5.485-8.227 3.029-1.515 5.485-.287 5.485 2.742 0 3.03-2.456 6.713-5.485 8.227-3.03 1.515-5.485.287-5.485-2.742Z" fill="#fff" fill-rule="evenodd" data-name="パス 98423"/><path d="M374.135 184.199c0 3.807 3.086 5.35 6.893 3.447 3.807-1.904 6.894-6.533 6.894-10.34 0-3.807-3.087-5.35-6.894-3.447-3.807 1.903-6.893 6.533-6.893 10.34Zm1.408-.704c0-3.03 2.456-6.713 5.485-8.228 3.03-1.514 5.485-.286 5.485 2.743s-2.455 6.712-5.485 8.227c-3.029 1.515-5.485.287-5.485-2.742Z" fill="#fff" fill-rule="evenodd" data-name="パス 98424"/><path d="M356.247 192.548c0 3.807 3.087 5.35 6.894 3.447 3.807-1.903 6.893-6.533 6.893-10.34 0-3.807-3.086-5.35-6.893-3.446-3.807 1.903-6.894 6.532-6.894 10.34Zm1.409-.704c0-3.029 2.455-6.713 5.485-8.227 3.029-1.515 5.484-.287 5.484 2.742 0 3.03-2.455 6.713-5.484 8.228-3.03 1.514-5.485.287-5.485-2.743Z" fill="#fff" fill-rule="evenodd" data-name="パス 98425"/></g><g data-name="グループ 46497"><g data-name="グループ 46496"><g data-name="グループ 46492"><path d="m397.037 185.489 8.162-3.828c.336-.155.61-.557.61-.893 0-.335-.274-.482-.61-.327l-8.162 3.828c-.335.155-.61.557-.61.892 0 .336.275.483.61.328Z" fill="#fff" fill-rule="evenodd" data-name="パス 98426"/></g><g data-name="グループ 46493"><path d="m397.037 161.96 8.162-3.826c.336-.156.61-.557.61-.893 0-.335-.274-.483-.61-.327l-8.162 3.827c-.335.155-.61.557-.61.893 0 .335.275.483.61.327Z" fill="#fff" fill-rule="evenodd" data-name="パス 98427"/></g><g data-name="グループ 46494"><path d="m397.037 192.93 8.162-3.828c.336-.156.61-.557.61-.893 0-.335-.274-.483-.61-.327l-8.162 3.827c-.335.156-.61.557-.61.893 0 .335.275.483.61.327Z" fill="#fff" fill-rule="evenodd" data-name="パス 98428"/></g><g data-name="グループ 46495"><path d="m393.752 190.985 11.447-5.434c.336-.156.61-.558.61-.893 0-.336-.274-.483-.61-.327l-11.447 5.434c-.336.155-.61.557-.61.892 0 .336.274.483.61.328Z" fill="#fff" fill-rule="evenodd" data-name="パス 98429"/></g></g></g><g data-name="グループ 46503"><g data-name="グループ 46502"><g data-name="グループ 46498"><path d="m379.837 194.211 8.162-3.827c.335-.156.61-.558.61-.893 0-.335-.275-.483-.61-.327l-8.162 3.827c-.336.156-.61.557-.61.893 0 .335.274.482.61.327Z" fill="#fff" fill-rule="evenodd" data-name="パス 98430"/></g><g data-name="グループ 46499"><path d="m379.837 170.683 8.162-3.827c.335-.155.61-.557.61-.892 0-.336-.275-.483-.61-.328l-8.162 3.828c-.336.155-.61.557-.61.892 0 .336.274.483.61.327Z" fill="#fff" fill-rule="evenodd" data-name="パス 98431"/></g><g data-name="グループ 46500"><path d="m379.837 201.652 8.162-3.828c.335-.155.61-.557.61-.892 0-.336-.275-.483-.61-.327l-8.162 3.827c-.336.155-.61.557-.61.892 0 .336.274.483.61.328Z" fill="#fff" fill-rule="evenodd" data-name="パス 98432"/></g><g data-name="グループ 46501"><path d="M376.551 199.707 388 194.273c.335-.155.61-.557.61-.893 0-.335-.275-.482-.61-.327l-11.448 5.434c-.335.156-.61.557-.61.893 0 .335.275.482.61.327Z" fill="#fff" fill-rule="evenodd" data-name="パス 98433"/></g></g></g><g data-name="グループ 46509"><g data-name="グループ 46508"><g data-name="グループ 46504"><path d="m362.636 202.933 8.162-3.827c.336-.155.61-.557.61-.892 0-.336-.274-.483-.61-.328l-8.162 3.828c-.335.155-.61.557-.61.892 0 .336.275.483.61.327Z" fill="#fff" fill-rule="evenodd" data-name="パス 98434"/></g><g data-name="グループ 46505"><path d="m362.636 179.406 8.162-3.827c.336-.156.61-.557.61-.893 0-.335-.274-.483-.61-.327l-8.162 3.827c-.335.156-.61.557-.61.893 0 .335.275.483.61.327Z" fill="#fff" fill-rule="evenodd" data-name="パス 98435"/></g><g data-name="グループ 46506"><path d="m362.636 210.374 8.162-3.827c.336-.155.61-.557.61-.893 0-.335-.274-.482-.61-.327l-8.162 3.827c-.335.156-.61.557-.61.893 0 .335.275.483.61.327Z" fill="#fff" fill-rule="evenodd" data-name="パス 98436"/></g><g data-name="グループ 46507"><path d="m359.35 208.43 11.448-5.434c.336-.156.61-.558.61-.893 0-.336-.274-.483-.61-.327l-11.448 5.434c-.335.155-.61.557-.61.892 0 .336.275.483.61.328Z" fill="#fff" fill-rule="evenodd" data-name="パス 98437"/></g></g></g></g><g data-name="グループ 46513"><path d="m761.713 397.203 38.092-19.335a1.624 1.624 0 0 1 2.358 1.448v69.17l-42.22 21.43v-69.83c0-1.218.684-2.332 1.77-2.883Z" fill-rule="evenodd" fill="url(&quot;#b&quot;)" transform="translate(-334.513 -291.43)" data-name="パス 98438"/><path d="M432.994 120.007c-1.047 6.704 3.964 10.269 11.191 7.963s13.933-9.61 14.98-16.313c1.045-6.704-3.965-10.268-11.192-7.963-7.227 2.306-13.933 9.61-14.98 16.313Zm9.863-6.803a1.644 1.644 0 0 0-.243-.25c.112.046.212.118.242.248v.002Zm-8.381 6.33c.927-5.943 6.874-12.42 13.282-14.464 6.408-2.045 10.851 1.116 9.924 7.06-.442 2.834-2.033 5.784-4.263 8.321.156-3.225-2.304-4.958-5.862-4.133l.013-.27c.14-.155.258-.294.334-.393.666-.864.734-2.288.734-2.288s.33-.094.729-.477c.295-.282.372-1.328.27-1.832.041.053.068.098.068.098s.193-.685.254-1.603c.062-.918-.612-1.25-.612-1.25s.057-.81-1.182-1.072c-1.239-.262-4.398.594-5.57 2.366-1.17 1.772-.615 3.903-.615 3.903v-.002c-.09.578-.068 1.33.165 1.433.373.165.704.071.704.071s-.067 1.424.535 1.93c.07.06.178.142.31.229l-.03.635s.036.049.103.113c-2.078 1.224-3.876 2.938-4.89 5.01-.27.551-.475 2.604-.625 3.922-2.817-.934-4.36-3.569-3.776-7.306Zm7.595-6.42.018-.067c.002-.004.01-.005.011-.01-.01.025-.02.049-.029.077Zm-.083.35v-.005.005Zm7.181-2.462.017-.016-.021.024.004-.008Z" fill="#fffdff" fill-rule="evenodd" data-name="パス 98439"/><g data-name="グループ 46511"><path d="m440.587 143.82 14.258-6.685c.586-.272 1.065-.974 1.065-1.56 0-.586-.48-.843-1.065-.571l-14.258 6.685c-.586.272-1.066.974-1.066 1.56 0 .586.48.843 1.066.571Z" fill="#fdfdfd" fill-rule="evenodd" data-name="パス 98440"/><path d="m440.587 156.818 14.258-6.686c.586-.271 1.065-.973 1.065-1.559s-.48-.843-1.065-.572l-14.258 6.686c-.586.272-1.066.973-1.066 1.56 0 .585.48.843 1.066.571Z" fill="#fdfdfd" fill-rule="evenodd" data-name="パス 98441"/><path d="m437.024 152.436 19.998-9.492c.586-.272 1.065-.974 1.065-1.56 0-.586-.48-.843-1.065-.571l-19.998 9.492c-.586.272-1.065.974-1.065 1.56 0 .586.48.843 1.065.571Z" fill="#fdfdfd" fill-rule="evenodd" data-name="パス 98442"/></g><g data-name="グループ 46512"><path d="M450.425 159.084c0 .379.307.532.685.342.38-.189.686-.649.686-1.028 0-.378-.307-.532-.686-.343-.378.19-.685.65-.685 1.029Z" fill="#fdfdfd" fill-rule="evenodd" data-name="パス 98443"/><path d="M448.273 160.137c0 .378.306.532.685.342.379-.189.686-.65.686-1.028 0-.379-.307-.532-.686-.343-.379.19-.685.65-.685 1.029Z" fill="#fdfdfd" fill-rule="evenodd" data-name="パス 98444"/><path d="M446.12 161.19c0 .378.307.531.686.342.379-.19.686-.65.686-1.028 0-.379-.307-.532-.686-.343-.379.19-.686.65-.686 1.028Z" fill="#fdfdfd" fill-rule="evenodd" data-name="パス 98445"/></g></g><g data-name="グループ 46519"><g data-name="グループ 46518"><g data-name="グループ 46514"><path d="m388.994 145.482 3.652-1.614v-1.41l-3.652 1.614v1.41Z" fill="#fdfdfd" fill-rule="evenodd" data-name="パス 98446"/><path d="m388.994 143.043 3.652-1.614v-1.41l-3.652 1.614v1.41Z" fill="#fdfdfd" fill-rule="evenodd" data-name="パス 98447"/><path d="m388.994 140.604 3.652-1.614v-1.41l-3.652 1.614v1.41Z" fill="#fdfdfd" fill-rule="evenodd" data-name="パス 98448"/></g><g data-name="グループ 46515"><path d="m383.732 147.808 3.652-1.614v-1.41l-3.652 1.614v1.41Z" fill="#fdfdfd" fill-rule="evenodd" data-name="パス 98449"/><path d="m383.732 145.369 3.652-1.614v-1.41l-3.652 1.614v1.41Z" fill="#fdfdfd" fill-rule="evenodd" data-name="パス 98450"/><path d="m383.732 142.93 3.652-1.614v-1.41l-3.652 1.614v1.41Z" fill="#fdfdfd" fill-rule="evenodd" data-name="パス 98451"/><path d="m383.732 140.49 3.652-1.614v-1.41l-3.652 1.615v1.41Z" fill="#fdfdfd" fill-rule="evenodd" data-name="パス 98452"/></g><g data-name="グループ 46516"><path d="m378.47 150.134 3.653-1.615v-1.41l-3.652 1.615v1.41Z" fill="#fdfdfd" fill-rule="evenodd" data-name="パス 98453"/><path d="m378.47 147.694 3.653-1.614v-1.41l-3.652 1.614v1.41Z" fill="#fdfdfd" fill-rule="evenodd" data-name="パス 98454"/><path d="m378.47 145.255 3.653-1.614v-1.41l-3.652 1.614v1.41Z" fill="#fdfdfd" fill-rule="evenodd" data-name="パス 98455"/><path d="m378.47 142.816 3.653-1.614v-1.41l-3.652 1.614v1.41Z" fill="#fdfdfd" fill-rule="evenodd" data-name="パス 98456"/><path d="m378.47 140.377 3.653-1.614v-1.41l-3.652 1.614v1.41Z" fill="#fdfdfd" fill-rule="evenodd" data-name="パス 98457"/></g><g data-name="グループ 46517"><path d="m373.209 152.46 3.652-1.615v-1.41l-3.652 1.614v1.41Z" fill="#fdfdfd" fill-rule="evenodd" data-name="パス 98458"/><path d="m373.209 150.02 3.652-1.614v-1.41l-3.652 1.614v1.41Z" fill="#fdfdfd" fill-rule="evenodd" data-name="パス 98459"/><path d="m373.209 147.581 3.652-1.614v-1.41l-3.652 1.614v1.41Z" fill="#fdfdfd" fill-rule="evenodd" data-name="パス 98460"/><path d="m373.209 145.142 3.652-1.614v-1.41l-3.652 1.614v1.41Z" fill="#fdfdfd" fill-rule="evenodd" data-name="パス 98461"/><path d="m373.209 142.703 3.652-1.615v-1.41l-3.652 1.615v1.41Z" fill="#fdfdfd" fill-rule="evenodd" data-name="パス 98462"/><path d="m373.209 140.264 3.652-1.615v-1.41l-3.652 1.615v1.41Z" fill="#fdfdfd" fill-rule="evenodd" data-name="パス 98463"/></g></g></g></g><g data-name="グループ 46522"><g data-name="グループ 46521"><path d="m741.271 674.528 4.422 55.28s-.58 2.468 2.14 2.704c2.719.236 4.258-2.427 4.258-2.427s.242-41.386 1.8-41.75c1.559-.362 3.925 46.626 3.925 46.626s.026 2.137 2.278 2.234c2.25.097 4.243-2.072 4.243-2.072l1.15-56.404-24.216-4.191Z" fill-rule="evenodd" fill="url(&quot;#c&quot;)" transform="translate(-319.858 -524.395)" data-name="パス 98464"/><path d="M448.043 114.343s-23.753-7.52-25.012-6.957c-1.258.563-14.926 11.52-14.926 11.52l-13.646 3.805s1.634 1.07 2.131 2.92c.066.254.123.498.16.723.235 1.446-.094 2.423-.094 2.423s14.368-2.442 15.26-3.108c.893-.667 8.584-5.137 8.584-5.137v29.835s1.634 5.193 9.625 6.536c8.001 1.342 16.143-2.893 16.143-2.893v-7.165s12.734-1.334 12.81-3.56c.075-2.215-8.903-28.21-11.035-28.942Zm-1.925 24.567v-9.09l4.667 8.066-4.667 1.024Z" fill="#fff" fill-rule="evenodd" data-name="パス 98465"/><path d="M438.403 211.891s.158 1.135-.534 1.397c-.693.262-6.572 3.463-5.814 3.934.758.47 2.178 2.526 4.14 2.173 1.961-.353 7.86-3.991 8.397-5.185.538-1.193-.113-3.482-.113-3.482l-6.076 1.163Z" fill="#131e60" fill-rule="evenodd" data-name="パス 98466"/><path d="M425.978 206.813s.159 1.134-.534 1.396c-.692.262-6.572 3.464-5.813 3.934.758.47 2.178 2.527 4.139 2.173 1.961-.353 7.86-3.991 8.397-5.184.538-1.193-.113-3.482-.113-3.482l-6.076 1.163Z" fill="#131e60" fill-rule="evenodd" data-name="パス 98467"/><path d="M575.335 548.248s-3.677-.164-4.436-.066c-.759.098-7.24 2.158-7.24 2.368 0 .21-.286 1.471 2.11.546 2.396-.924 4.455-1.008 4.455-1.008s-.546 2.69 0 3.11c.547.42 2.943 2.69 3.825 2.102.883-.589 3.237-2.102 3.237-2.102s.854-3.258-1.951-4.95Z" fill-rule="evenodd" fill="url(&quot;#d&quot;)" transform="translate(-180.456 -425.21)" data-name="パス 98468"/><path d="m438.639 111.203-4.69 1.517 1.534 2.484 4.856-3.468s-1.151-.71-1.7-.533Z" fill="#fefefe" fill-rule="evenodd" data-name="パス 98469"/><path d="m432.582 112.146-2.466.575.84-4.526 1.205.256.421 3.695Z" fill="#fefefe" fill-rule="evenodd" data-name="パス 98470"/><path d="M774.565 422.379s-.598 2.293 0 2.732c.598.44.598.44.305.781-.293.342-.752 1.416-.571 3.27.18 1.855-.217 6.051.762 6.734.98.684 2.59.488 2.59.488v1.025s.635 1.415 2.929 1.318c2.293-.098 3.806-1.513 3.806-1.513s-.195-6.1.683-7.808c.879-1.708.684-4.295-1.024-5.905-1.708-1.61-9.251-2.376-9.48-1.122Z" fill-rule="evenodd" fill="url(&quot;#e&quot;)" transform="translate(-345.747 -326.011)" data-name="パス 98471"/><path d="M428.195 94.806c-.146 2.294.927 3.465 3.27 4.05 2.342.586 3.66 0 3.66 0s-.635.732.634.879c1.27.146 1.172.927 1.22 2.44.05 1.513.489 2.733.488 1.61 0-1.122.635-2.489 1.22-2 .586.487-.339 2.733.197 3.27.536.536 3.22-1.367 4.488-5.125 1.27-3.758-.976-5.612-.976-5.612s-.341-3.27-3.806-3.953c-3.465-.683-10.395 4.441-10.395 4.441Z" fill="#131e60" fill-rule="evenodd" data-name="パス 98472"/><path d="m432.582 112.146-1.233.287-4.957 36.83 1.79 2.257 2.646-1.202 3.657-36.73-.535-.867-1.368-.575Z" fill="#1788dd" fill-rule="evenodd" data-name="パス 98473"/><path d="m435.823 151.442-15.614-8.131v-25.914l15.614 8.13v25.915Z" fill="#eaf1f7" fill-rule="evenodd" data-name="パス 98474"/><path d="M787.132 633.338s1.938 1.22 1.938 2.987c0 1.767-.57 2.737-.57 2.737s-2.965.17-4.732.684c-1.767.513-6.955-3.592-3.079-4.675 3.877-1.083 4.618-.171 4.504-1.026-.114-.855.285-1.737.627-1.553.342.184 1.312.846 1.312.846Z" fill-rule="evenodd" fill="url(&quot;#f&quot;)" transform="translate(-349.692 -491.385)" data-name="パス 98475"/><path d="M446.118 129.82s-.4-4.425 0-6.88l.401-2.455s-2.086 2.998-2.412 8.016c-.325 5.019-.325 10.918-.325 10.918l-6.343 2.534s5.952-1.069 7.255-1.786c1.304-.717 1.424-1.257 1.424-1.257v-9.09Z" fill="#131e60" fill-rule="evenodd" data-name="パス 98476"/><path d="m446.268 146.845-7.46.832s5.43.115 5.69 1.289c.261 1.173.826 5.49.826 5.49l.944-.446v-7.165Z" fill="#131e60" fill-rule="evenodd" data-name="パス 98477"/></g></g></g></g><defs><linearGradient x1="0" y1=".5" x2="1" y2=".5" id="a"><stop stop-color="#1788dd" offset="0"/><stop stop-color="#2c9dbc" offset="1"/></linearGradient><linearGradient x1="0" y1=".5" x2="1" y2=".5" id="b"><stop stop-color="#1788dd" offset="0"/><stop stop-color="#2c9dbc" offset="1"/></linearGradient><linearGradient x1="0" y1=".5" x2="1" y2=".5" id="c"><stop stop-color="#3060ab" offset="0"/><stop stop-color="#131e60" offset="1"/></linearGradient><linearGradient x1="0" y1=".5" x2="1" y2=".5" id="d"><stop stop-color="#ffd9d9" offset="0"/><stop stop-color="#efb4b4" offset="1"/></linearGradient><linearGradient x1="-97.583" y1="6.197" x2="-98.642" y2="6.133" id="e"><stop stop-color="#ffd9d9" offset="0"/><stop stop-color="#efb4b4" offset="1"/></linearGradient><linearGradient x1="0" y1=".5" x2="1" y2=".5" id="f"><stop stop-color="#ffd9d9" offset="0"/><stop stop-color="#efb4b4" offset="1"/></linearGradient></defs></svg>