<svg xmlns="http://www.w3.org/2000/svg" width="108.758" height="57.185" viewBox="55.748 29 108.758 57.185"><g data-name="グループ 47563"><path d="M55.748 30h107v56h-107V30z" fill="#fff" fill-rule="evenodd" data-name="長方形 6928"/><path d="M55.748 29v28.75h2.34V31.34h52.04V29h-54.38Z" fill="#6db0aa" fill-rule="evenodd" data-name="パス 100564"/><path d="M55.748 57.434v28.75h54.38v-2.339h-52.04V57.434h-2.34Z" fill="#db8fb5" fill-rule="evenodd" data-name="パス 100565"/><path d="M162.166 57.434v26.411h-52.039v2.34h54.379V57.434h-2.34Z" fill="#8cc5d1" fill-rule="evenodd" data-name="パス 100566"/><path d="M110.127 29v2.34h52.04v26.41h2.339V29h-54.379Z" fill="#f2efaa" fill-rule="evenodd" data-name="パス 100567"/><path d="M70.955 56.683h77.04v1.17h-77.04v-1.17z" fill="#dee4e9" fill-rule="evenodd" data-name="長方形 6921"/><path d="M108.89 38.806h1.17v36.925h-1.17V38.806z" fill="#dee4e9" fill-rule="evenodd" data-name="長方形 6922"/><g data-name="グループ 47562"><g data-name="グループ 47561" transform="translate(55.748 29)" clip-path="url(&quot;#a&quot;)"><path d="M26.561 13.198c-.084.21-.084.21-.309.744-.617 1.515-1.178 2.54-1.894 3.507.267.49.548.884.843 1.207.237.251.547.504.63.504.056 0 .112-.084.183-.266.098-.322.098-.322.266-1.642.478.477.659.618 1.264.94-.324 1.894-.815 2.723-1.587 2.723-.715 0-1.823-.94-2.637-2.26-1.052 1.038-2.146 1.838-3.395 2.455-.435-.645-.59-.813-1.067-1.22a10.529 10.529 0 0 0 3.775-2.582c-.59-1.444-.898-3.128-1.053-5.597h-4.349c-.013 1.346-.013 1.346-.028 1.852h2.582c.491 0 .702-.014.996-.056-.029.252-.056.645-.085 1.192-.14 2.525-.223 3.269-.462 3.859-.225.561-.73.77-1.81.77-.393 0-.617-.014-1.066-.042a5.246 5.246 0 0 0-.365-1.486c.744.098.954.112 1.36.112.435 0 .563-.084.632-.435.112-.492.183-1.403.21-2.54h-2.048c-.098 1.6-.223 2.568-.435 3.522-.253 1.122-.532 1.754-1.15 2.735-.434-.561-.716-.827-1.22-1.192.491-.758.786-1.418.967-2.216.281-1.178.422-3.045.422-5.542 0-1.08-.015-1.431-.085-1.993.506.044 1.081.072 1.81.072h4.068c-.013-.114-.013-.478-.042-1.095-.014-.52-.014-.576-.069-.883h1.668c-.042.293-.069.869-.069 1.332v.646h1.852a6.632 6.632 0 0 0-1.235-1.292l1.08-.686c.646.546.884.785 1.417 1.472l-.729.506h.42c.744 0 1.122-.016 1.488-.085v1.543c-.464-.042-.997-.07-1.712-.07h-2.525c.125 1.838.322 3.128.645 4.195.702-1.137 1.178-2.301 1.347-3.284l1.501.576Z" fill="#6db0aa" fill-rule="evenodd" data-name="パス 100568"/><path d="M31.717 14.516c-.744 0-1.221.014-1.697.07.056-.407.069-.758.069-1.599v-2.75c0-.772-.013-1.08-.069-1.486.42.054.855.07 1.67.07h6.65c.826 0 1.22-.016 1.682-.07-.056.377-.07.714-.07 1.599v2.637c0 .883.014 1.206.07 1.6-.505-.057-.898-.07-1.697-.07h-2.666v.785h4.04c.787 0 1.208-.03 1.6-.085v1.558c-.478-.056-.94-.084-1.585-.084h-3.072c.574.631 1.122 1.065 1.922 1.528 1.01.576 1.851.927 3.03 1.222a7.39 7.39 0 0 0-.815 1.486c-2.131-.73-3.858-1.88-5.148-3.437 0 .183 0 .183.014.463.014.21.014.393.014.547v1.221c0 .673.028 1.038.098 1.53h-1.71c.083-.478.096-.8.096-1.517v-1.22c.015-.547.015-.547.042-.967a11.682 11.682 0 0 1-2.215 2.005c-.8.561-1.445.898-2.694 1.446a6.145 6.145 0 0 0-.842-1.446 11.38 11.38 0 0 0 2.75-1.22c.813-.506 1.291-.925 1.908-1.641h-2.82c-.673 0-1.108.028-1.572.084v-1.558c.408.07.787.085 1.573.085h3.87v-.786h-2.426Zm-.112-3.423h2.538v-.953h-2.538v.953Zm0 2.161h2.538v-.955h-2.538v.955Zm4.054-2.16h2.792v-.954H35.66v.953Zm0 2.16h2.792v-.955H35.66v.955Z" fill="#6db0aa" fill-rule="evenodd" data-name="パス 100569"/><path d="M66.175 10.657c.351.057.673.086 1.193.086h3.605c.548 0 .855-.016 1.192-.07v1.402c-.321-.042-.602-.056-1.192-.056h-3.619c-.463 0-.772.014-1.179.07v-1.432Zm.59-1.95c.35.058.63.07 1.206.07h2.428c.56 0 .827-.012 1.19-.07v1.376a9.668 9.668 0 0 0-1.19-.056h-2.428a9.8 9.8 0 0 0-1.206.056V8.707Zm1.488 12.557h-1.488c.056-.407.07-.8.07-1.347v-2.119a8.76 8.76 0 0 0-.056-1.093c.265.028.462.042.982.042h3.016c.435 0 .646-.014.911-.042-.04.323-.056.59-.056 1.08v2.062c0 .533.015.87.071 1.22h-1.5v-.434h-1.95v.631Zm-1.474-8.557c.294.028.462.04.926.04h2.974c.477 0 .603 0 .897-.04v1.332c-.322-.042-.448-.042-.897-.042h-2.974c-.464 0-.605 0-.926.042v-1.332Zm0 1.99c.252.03.435.044.926.044h2.974c.477 0 .603 0 .897-.044v1.334a7.693 7.693 0 0 0-.925-.042H67.69c-.45 0-.617.014-.911.042v-1.334Zm1.444 4.686h1.992v-1.36h-1.992v1.36Zm6.496-9.342c0-.786-.014-1.15-.098-1.684h1.753c-.07.477-.098.926-.098 1.684v2.538h.996c.758 0 1.234-.028 1.698-.083v1.613a15.676 15.676 0 0 0-1.712-.084h-.982v5.12c0 .968.028 1.544.098 2.12h-1.753c.07-.562.098-1.096.098-2.12v-5.12h-.87c-.617 0-1.22.028-1.712.084v-1.613c.45.055.955.083 1.698.083h.884v-2.538Z" fill="#e2e100" fill-rule="evenodd" data-name="パス 100570"/><path d="M81.896 10.097c-.631 0-1.15.028-1.726.084V8.637a14.93 14.93 0 0 0 1.697.085h9.26c.63 0 1.178-.028 1.725-.085v1.544a16.435 16.435 0 0 0-1.711-.084h-3.956v1.248h1.669a8.79 8.79 0 0 0 1.15-.055 7.39 7.39 0 0 0-.056 1.052v5.021c0 .52.014.73.056 1.039-.364-.042-.59-.056-1.234-.056h-4.532c-.674 0-.897.014-1.263.056.043-.337.056-.532.056-1.039v-5.021c0-.45-.013-.702-.056-1.052.324.04.645.055 1.15.055h1.628v-1.248h-3.857Zm10.633 1.459c-.055.49-.084 1.08-.084 1.57v6.285c0 .73.03 1.292.098 1.881h-1.627v-.66h-8.852v.66h-1.6a18.4 18.4 0 0 0 .085-1.865v-6.313c0-.562-.028-1.053-.084-1.558h1.628c-.043.322-.057.617-.057 1.249v6.467h8.922v-6.495c0-.562-.014-.87-.07-1.221h1.641Zm-8.136 2.567h1.36V12.65h-1.36v1.473Zm0 2.975h1.36v-1.712h-1.36v1.712Zm2.792-2.975H88.6V12.65h-1.416v1.473Zm0 2.975H88.6v-1.712h-1.416v1.712Z" fill="#e2e100" fill-rule="evenodd" data-name="パス 100571"/><path d="M16.28 41.208c-.324 0-.59.014-.842.056v-.996c-.17.084-.226.112-.45.21-.182-.533-.28-.714-.645-1.22 1.081-.309 1.557-.645 1.754-1.263h-.462c-.407 0-.688.014-1.053.056V36.72c.28.042.603.056 1.08.056h1.67V36.1h-1.137c-.462 0-.659.014-.997.042v-1.29c.393.056.618.07 1.081.07h1.053v-.21c0-.253-.014-.478-.071-.758h1.5a3.33 3.33 0 0 0-.069.744v.224h.954c.602 0 .898-.014 1.137-.07v1.29a9.765 9.765 0 0 0-.983-.042h-1.108v.674h1.347c.448 0 .785-.014 1.052-.042v1.304a9.505 9.505 0 0 0-1.023-.042h-.337v.604c0 .14.04.168.251.168.365 0 .392-.042.436-.618.393.169.617.239 1.023.295-.141 1.067-.365 1.248-1.528 1.248-.857 0-1.136-.098-1.29-.463-.015.24-.029.393-.029.73v.084h1.122c.365 0 .686-.014.856-.042v1.25a7.011 7.011 0 0 0-.87-.043h-1.108v.729c.687-.084 1.08-.14 2.132-.295v.842c.659-.519 1.094-1.137 1.444-2.034-.35-.393-.477-.533-.969-1.024l.843-1.108.547.575c.07-.393.084-.617.113-1.417h-.308c-.366 0-.646.015-.927.07V36.03c.281.042.52.056.927.056h.337v-.8c0-.532-.016-.841-.086-1.262h1.572c-.043.28-.071.603-.085 1.164-.013.365-.013.533-.027.898h.814c.463 0 .813-.014 1.18-.07-.03.28-.058.758-.058 1.25 0 1.135.126 3 .237 3.745.072.42.183.785.239.785.112 0 .21-.785.253-1.963.322.251.59.406 1.01.574-.196 2.189-.547 3.03-1.276 3.03-.534 0-.982-.49-1.276-1.43-.337-1.024-.491-2.469-.507-4.532h-.686c-.044 1.052-.155 1.81-.352 2.623.534.632.689.828 1.137 1.501l-.899 1.235a21.79 21.79 0 0 0-.799-1.206c-.533 1.08-.981 1.641-1.81 2.328a5.834 5.834 0 0 0-.896-1.094c-1.56.281-1.56.281-3.226.492-1.573.21-2.007.265-2.301.335l-.267-1.486h.182c.127.014.197.014.225.014.42 0 1.234-.056 2.287-.155v-.855h-1.039Zm-1.698 4.755c.996-.84 1.332-1.262 1.837-2.273l1.29.646c-.588 1.193-.939 1.684-1.851 2.61l-1.276-.983Zm2.736-6.018c0-.406-.015-.645-.057-.87h1.333v-1.08h-1.18c-.196.87-.687 1.529-1.528 2.034.126.014.21.014.407.014h1.025v-.098Zm1.415 6.902c0-1.276-.028-1.669-.195-2.637l1.401-.14c.21.982.267 1.417.324 2.651l-1.53.126Zm3.326.014c-.17-1.08-.35-1.725-.716-2.595l1.39-.295c.418.955.517 1.25.828 2.54l-1.502.35Zm3.886.043c-.576-1.122-.969-1.712-1.797-2.708l1.25-.604c1.037 1.137 1.331 1.53 1.964 2.511l-1.417.8Z" fill="#db8fb5" fill-rule="evenodd" data-name="パス 100572"/><path d="M28.477 45.879c.842-.925 1.178-1.473 1.544-2.47l1.36.562c-.435 1.122-.8 1.754-1.613 2.792l-1.29-.884Zm5.653-11.14c0-.293-.027-.574-.083-.883h1.739a4.398 4.398 0 0 0-.084.884v.126h3.31c.675 0 1.082-.028 1.489-.084v1.361c-.45-.042-.758-.056-1.502-.056h-.786c-.14.309-.224.505-.406.827h1.908c.813 0 1.192-.014 1.599-.069v1.36c-.407-.056-.8-.07-1.613-.07h-9.372c-.813 0-1.192.014-1.613.07v-1.36c.407.055.856.07 1.669.07h1.753a9.904 9.904 0 0 0-.377-.828H31c-.728 0-1.023.014-1.443.056v-1.361c.392.056.813.084 1.487.084h3.085v-.126Zm-2.552 8.376c-.604 0-.983.015-1.376.043.043-.31.058-.534.058-1.053V39.89c0-.562-.015-.885-.058-1.248.393.028.758.04 1.516.04h6.524c.841 0 1.136-.012 1.529-.04-.043.294-.056.644-.056 1.248v2.09c0 .463.013.77.056 1.18-.183-.016-.197-.016-.477-.029h-.365c-.169-.015-.295-.015-.392-.015h-3.185c.42.28.63.449 1.39 1.109l-1.166.911c-.63-.729-.674-.757-1.586-1.5l.688-.52h-3.1Zm.14-2.735h6.538v-.575h-6.538v.575Zm0 1.613h6.538v-.575h-6.538v.575Zm1.668 3.198c0 .169.044.225.226.267.155.042.729.084 1.206.084 1.628 0 2.078-.056 2.217-.266.098-.168.14-.505.14-1.15.504.21.786.294 1.445.378-.042 1.052-.155 1.501-.407 1.782-.392.421-.968.504-3.395.504-2.441 0-2.903-.153-2.903-.981v-1.234c0-.464-.015-.758-.071-1.04h1.614c-.056.338-.072.548-.072 1.04v.616Zm2.835-8.277a7.54 7.54 0 0 0 .407-.827h-3.31c.14.267.21.448.363.827h2.54Zm4.013 9.68c-.688-1.15-1.109-1.71-1.923-2.637l1.235-.7c.87.939 1.347 1.542 1.95 2.453l-1.262.885Z" fill="#db8fb5" fill-rule="evenodd" data-name="パス 100573"/><path d="M68.827 45.29c0 .603.013 1.066.069 1.628h-1.613c.056-.548.085-.955.085-1.642v-4.181c0-.49 0-.533.042-1.557-.31.561-.464.8-1.038 1.515a8.759 8.759 0 0 0-.646-1.668c.925-1.011 1.586-2.119 2.134-3.607.293-.814.434-1.304.518-1.936l1.543.534c-.043.139-.14.42-.281.84-.28.871-.45 1.278-.813 2.063v8.01Zm.743-8.866c.35.056.673.07 1.165.07h6.831c.563 0 .954-.03 1.32-.084v1.445c-.38-.043-.787-.07-1.32-.07h-6.831c-.435 0-.814.013-1.165.07v-1.431Zm2.175 10.508H70.23c.043-.365.07-.786.07-1.305v-1.979c0-.449-.013-.869-.056-1.206.295.028.674.042 1.151.042h5.317c.547 0 .884-.014 1.192-.042-.042.351-.055.688-.055 1.192V45.6c0 .533.013.898.069 1.319h-1.543v-.646h-4.629v.66Zm6.103-7.127a7.941 7.941 0 0 0-1.095-.057h-5.374c-.476 0-.672.014-.995.057v-1.333c.295.042.504.056.995.056h5.36c.463 0 .772-.014 1.109-.056v1.333Zm0 1.978a8.116 8.116 0 0 0-1.081-.057h-5.388c-.491 0-.714.014-.995.057V40.45c.295.042.52.056.995.056h5.374c.463 0 .77-.014 1.095-.056v1.333Zm0-5.99c-.38-.043-.786-.057-1.376-.057h-4.727c-.562 0-.926.014-1.263.056v-1.346c.406.056.799.084 1.389.084h4.489c.674 0 1.108-.028 1.488-.084v1.346Zm-1.474 7.982h-4.629v1.177h4.629v-1.177Z" fill="#8cc5d1" fill-rule="evenodd" data-name="パス 100574"/><path d="M86.258 36.705a12.864 12.864 0 0 0-1.192-.044h-1.15v.927h.926c.574 0 .842-.014 1.164-.056-.043.35-.043.491-.043 1.123v1.865c0 .603.014.827.043 1.136-.351-.027-.575-.042-1.136-.042h-.618c.688.884 1.334 1.459 2.104 1.908-.379.505-.533.744-.743 1.25-.126-.127-.126-.127-.547-.506a7.672 7.672 0 0 1-1.207-1.375c.042.645.056 1.108.056 1.628v.939c0 .758.014 1.067.084 1.432h-1.5c.056-.393.07-.716.07-1.432v-.883c0-.506.013-.94.042-1.515-.616 1.136-1.164 1.838-2.118 2.72-.21-.56-.407-.897-.786-1.318.925-.645 1.851-1.683 2.511-2.848h-.547c-.575 0-.771.015-1.178.042.04-.365.056-.686.056-1.276v-1.613c0-.547-.015-.87-.056-1.235.379.042.644.056 1.36.056h.716v-.927h-.94c-.715 0-1.136.016-1.53.058v-1.473c.422.055.745.07 1.53.07h.94c0-.647-.014-.94-.07-1.263h1.488c-.058.267-.072.588-.072 1.164v.098h1.164c.605 0 .815-.014 1.109-.042v-.925c.421.056.8.084 1.488.084h3.661c.771 0 1.15-.015 1.515-.07v1.486c-.407-.056-.758-.07-1.515-.07h-1.039c-.14.421-.252.73-.393 1.052h1.108c.744 0 1.025-.013 1.363-.042-.03.38-.043.8-.043 1.333v4.63c0 .546.014 1.052.043 1.445a18.567 18.567 0 0 0-1.193-.042h-.393c.758.856 1.277 1.206 2.455 1.697-.45.42-.532.52-.94 1.165-1.122-.646-1.74-1.137-2.596-2.09l.926-.772H88.04l.996.786c-1.066 1.135-1.67 1.57-2.862 2.076-.267-.505-.463-.772-.87-1.151.856-.294 1.39-.576 2.006-1.08.21-.182.295-.266.603-.631h-.196c-.462 0-.813.014-1.094.042.028-.435.028-.674.028-1.277v-4.812c0-.631-.014-.912-.042-1.304.323.014.576.027 1.192.027h.632c.182-.434.295-.743.379-1.052h-1.544c-.518 0-.743.014-1.01.042v.885Zm-4.433 3.647h.744v-1.5h-.744v1.5Zm2.09 0h.786v-1.5h-.786v1.5Zm4.112-1.459h2.917v-.8h-2.917v.8Zm0 1.964h2.917v-.814h-2.917v.814Zm0 2.02h2.917v-.87h-2.917v.87Z" fill="#8cc5d1" fill-rule="evenodd" data-name="パス 100575"/></g></g></g><defs><clipPath id="a"><path d="M0 0h108.758v57.185H0V0z" data-name="長方形 6923"/></clipPath></defs></svg>