<svg xmlns="http://www.w3.org/2000/svg" width="107.5" height="56.5" viewBox="50.667 31 107.5 56.5"><g data-name="グループ 47557"><g data-name="グループ 47629"><g data-name="長方形 6930"><path d="M50.667 31h107v56h-107V31z" fill="#fff" fill-rule="evenodd"/><path d="M0 0h107v56h0H0h0V0h0z" stroke-linejoin="round" stroke-linecap="round" stroke="#e1e8ef" fill="transparent" transform="matrix(.99065 0 0 .98214 51.167 31.5)"/></g><path d="M51.167 59.5h107" stroke-dasharray="1" stroke-linejoin="round" stroke-linecap="round" stroke="#e1e8ef" fill="transparent" data-name="線 1987"/><path d="M51.167 44.5h107" stroke-dasharray="1" stroke-linejoin="round" stroke-linecap="round" stroke="#e1e8ef" fill="transparent" data-name="線 1988"/><path d="M51.167 73.5h107" stroke-dasharray="1" stroke-linejoin="round" stroke-linecap="round" stroke="#e1e8ef" fill="transparent" data-name="線 1989"/><path d="M121.167 87.5v-56" stroke-dasharray="1" stroke-linejoin="round" stroke-linecap="round" stroke="#e1e8ef" fill="transparent" data-name="線 1990"/><path d="M140.167 87.5v-56" stroke-dasharray="1" stroke-linejoin="round" stroke-linecap="round" stroke="#e1e8ef" fill="transparent" data-name="線 1991"/><path d="M67.167 87.5v-56" stroke-dasharray="1" stroke-linejoin="round" stroke-linecap="round" stroke="#e1e8ef" fill="transparent" data-name="線 1992"/><path d="M86.167 87.5v-56" stroke-dasharray="1" stroke-linejoin="round" stroke-linecap="round" stroke="#e1e8ef" fill="transparent" data-name="線 1993"/><path d="M104.167 87.5v-56" stroke-dasharray="1" stroke-linejoin="round" stroke-linecap="round" stroke="#e1e8ef" fill="transparent" data-name="線 1994"/></g><path d="M134.717 73.314h4.66v9.088h-4.66v-9.088z" fill="#e4e04a" fill-rule="evenodd" data-name="長方形 6894"/><path d="M141.686 73.816h4.66v9.012h-4.66v-9.012z" fill="#a3a3a3" fill-rule="evenodd" data-name="長方形 6895"/><path d="M127.75 77.148h4.659v5.68h-4.66v-5.68z" fill="#a3a3a3" fill-rule="evenodd" data-name="長方形 6896"/><path d="M120.781 68.913h4.66v13.49h-4.66v-13.49z" fill="#e4e04a" fill-rule="evenodd" data-name="長方形 6897"/><path d="M113.813 64.226h4.659v18.176h-4.66V64.226z" fill="#e4e04a" fill-rule="evenodd" data-name="長方形 6898"/><path d="M106.845 67.401h4.659v15.427h-4.66V67.401z" fill="#a3a3a3" fill-rule="evenodd" data-name="長方形 6899"/><path d="M65.035 68.905h4.66v13.923h-4.66V68.905z" fill="#a3a3a3" fill-rule="evenodd" data-name="長方形 6900"/><path d="M93.082 75.657h4.31v6.745h-4.31v-6.745z" fill="#e4e04a" fill-rule="evenodd" data-name="長方形 6901"/><path d="M148.828 79.03h4.31v3.372h-4.31V79.03z" fill="#e4e04a" fill-rule="evenodd" data-name="長方形 6902"/><path d="M85.94 75.506h4.66v7.322h-4.66v-7.322z" fill="#a3a3a3" fill-rule="evenodd" data-name="長方形 6903"/><path d="M78.97 75.114h4.66v7.322h-4.66v-7.322z" fill="#e4e04a" fill-rule="evenodd" data-name="長方形 6904"/><path d="M72.003 74.193h4.66v8.635h-4.66v-8.635z" fill="#a3a3a3" fill-rule="evenodd" data-name="長方形 6905"/><path d="M99.876 65.753h4.66v16.273h-4.66V65.753z" fill="#e4e04a" fill-rule="evenodd" data-name="長方形 6906"/><path d="M58.066 73.013h4.66v9.013h-4.66v-9.013z" fill="#e4e04a" fill-rule="evenodd" data-name="長方形 6907"/><path d="M54.125 81.916h101.697v.895H54.125v-.895z" fill="#afafaf" fill-rule="evenodd" data-name="長方形 6908"/><path d="m122.65 38.957-9.495 8.641-6.671.004-7.174-1.048-5.892 1.05-7.396 4.423-8.974-4.457-6.959 1.717-8.802-6.304-7.88 6.448.588.718 7.329-5.996 8.572 6.14 7.044-1.74 9.125 4.532 7.602-4.581 5.658-1.008 7.092 1.03h7.097l8.737-7.95 2.142 5.883 6.996 4.87 5.557-1.411 8.569 1.359 7.938 3.434.368-.853-7.991-3.457-8.928-1.43-5.33 1.353-6.407-4.46-2.516-6.907Z" fill="#e73e8f" fill-rule="evenodd" data-name="パス 100548"/><path d="m86.199 53.61-7.33-5.602H53.7v-.929h25.481l7.146 5.46 6.045-2.656 8.142-4.475 10.42-4.956 4.96 2.834 9.343.716.09 6.557 5.905.309 6.724-10.629 6.396 6.321h9.284v.93h-9.666l-5.847-5.78-6.397 10.114-7.316-.383-.09-6.577-8.797-.72-4.628-2.645-9.959 4.736-8.153 4.481-6.585 2.893Z" fill="#1788dd" fill-rule="evenodd" data-name="パス 100549"/></g></svg>