<svg xmlns="http://www.w3.org/2000/svg" width="189.682" height="148.614" viewBox="140 72.503 189.682 148.614"><g data-name="アートワーク 38"><g data-name="グループ 47687"><path d="m178.604 200.965 37.835 17.751c.716.263 1.49.336 2.243.21l.35-.058 16.48-6.88" stroke-linejoin="round" stroke-linecap="round" stroke-width="1.416" stroke="#1788dd" fill="transparent" data-name="パス 100917"/><g data-name="グループ 47668"><path d="M143.938 220.815 250.143 166.5a2.835 2.835 0 0 0 1.54-2.522V80.218c0-1.531-1.62-2.521-2.982-1.822L141.95 132.991a3.592 3.592 0 0 0-1.95 3.194v82.225c0 2.022 2.14 3.33 3.938 2.405Z" fill="#eaf1f7" fill-rule="evenodd" data-name="パス 100918"/><path d="m28.23 68.968 106.752-54.594c1.363-.7 2.983.29 2.983 1.821v5.418L26.28 78.741v-6.578c0-1.347.753-2.58 1.95-3.195Z" fill-rule="evenodd" fill="url(&quot;#a&quot;)" transform="translate(113.72 58.358)" data-name="パス 100919"/></g><g data-name="グループ 47673"><g data-name="グループ 47672"><path d="m152.575 211.62 91.691-46.3a3.094 3.094 0 0 0 1.681-2.753v-68.99c0-1.671-1.769-2.752-3.255-1.988l-92.287 46.607a3.92 3.92 0 0 0-2.13 3.487v67.312c0 2.209 2.336 3.635 4.3 2.625Z" fill="#fff" fill-rule="evenodd" data-name="パス 100920"/><g data-name="グループ 47671"><g data-name="グループ 47670"><g data-name="グループ 47669"><path d="M43.508 75.929v27.304l6.732-3.527v-27.46l-6.732 3.683Z" fill-rule="evenodd" fill="url(&quot;#b&quot;)" transform="translate(120.887 82.532)" data-name="パス 100921"/><path d="M175.664 164.615v15.213l6.731-3.528v-15.368l-6.731 3.683Z" fill="#1788dd" fill-rule="evenodd" data-name="パス 100922"/><path d="M186.932 154.162v19.728l6.732-3.528V150.48l-6.732 3.683Z" fill="#1788dd" fill-rule="evenodd" data-name="パス 100923"/><path d="M198.2 140.647v27.305l6.732-3.528v-27.46l-6.731 3.683Z" fill="#1788dd" fill-rule="evenodd" data-name="パス 100924"/><path d="M209.47 126.235v35.779l6.73-3.528v-35.934l-6.73 3.683Z" fill="#1788dd" fill-rule="evenodd" data-name="パス 100925"/><path d="M220.738 113.12v42.956l6.731-3.527v-43.112l-6.731 3.683Z" fill="#1788dd" fill-rule="evenodd" data-name="パス 100926"/><path d="M232.007 122.833v27.305l6.73-3.527V119.15l-6.73 3.683Z" fill="#1788dd" fill-rule="evenodd" data-name="パス 100927"/></g><path d="m128.182 77.644-.364-.748-87.453 45.824v-4.938l.314-.165-.314-.646v-6.26l.314-.165-.314-.646v-6.26l.314-.165-.314-.646v-6.264l.314-.164-.314-.646v-6.26l.314-.165-.314-.646V82.42l.314-.165-.314-.646v-6.26l.314-.165-.314-.646v-6.26l.314-.165-.314-.646v-4.903l-.847.044v5.175l-4.26 2.231.364.748 3.896-2.04v6.131l-4.26 2.232.364.748 3.896-2.04v6.132l-4.26 2.234.364.748 3.896-2.043v6.134l-4.26 2.232.364.748 3.896-2.04v6.131l-4.26 2.232.364.748 3.896-2.04v6.134l-4.26 2.232.364.748 3.896-2.04v6.131l-4.26 2.232.364.748 3.896-2.04v6.132l-4.26 2.234.364.748 3.896-2.043v5.874l88.664-46.456Z" fill-rule="evenodd" fill="url(&quot;#c&quot;)" transform="translate(117.454 78.504)" data-name="パス 100928"/></g><path d="m158.887 148.263 8.782-6.203v9.59l4.988-8.114 10.618 3.319 14.426-3.32 4.522 10.143 10.274-5.415 3.415 9.84 5.57-9.662 9.374 3.024 10.042-10.387 3.728 1.904" stroke-linejoin="round" stroke-linecap="round" stroke-width="1.062" stroke="#e2e100" fill="transparent" data-name="パス 100929"/></g></g><path d="M192.042 144.417a5.49 5.49 0 1 1 0 .1z" fill="#e2e100" fill-rule="evenodd" data-name="楕円形 2384"/><path d="M211.905 158.706a4.393 4.393 0 1 1 0 .1z" fill="#e2e100" fill-rule="evenodd" data-name="楕円形 2385"/><path d="M162.49 154.313a4.393 4.393 0 1 1 0 .1z" fill="#e2e100" fill-rule="evenodd" data-name="楕円形 2386"/><path d="M181.16 146.604a2.219 2.219 0 1 1 0 .1z" fill="#e2e100" fill-rule="evenodd" data-name="楕円形 2387"/><path d="M228.356 150.974a2.219 2.219 0 1 1 0 .1z" fill="#e2e100" fill-rule="evenodd" data-name="楕円形 2388"/></g><path d="m80.65 108.387 30.071-14.318a9.511 9.511 0 0 1 8.107-.032l31.517 14.692c1.696.79 1.698 3.201.002 3.993l-32.652 15.261a5.209 5.209 0 0 1-4.39.009l-32.629-15.089c-1.917-.888-1.933-3.608-.025-4.516Z" fill-rule="evenodd" fill="url(&quot;#d&quot;)" transform="translate(135.75 91.229)" data-name="パス 100930"/><g data-name="グループ 47684"><g data-name="グループ 47683"><g data-name="グループ 47682"><g data-name="グループ 47674"><path d="M249.54 191.482c1.526.88 2.552 2.484 5.606 4.03 1.773.895 6.06 1.61 5.892-.354a1.483 1.483 0 0 0-.06-.328c.141.301.236.586.259.848.167 1.965-4.118 1.252-5.893.354-3.051-1.545-4.08-3.15-5.606-4.032-.191-.109-.42-.228-.658-.354v.479l-3.045-1.428s-.187-.508-.173-1.091c.391.342 2.6 1.249 3.678 1.876Z" fill="#00267e" fill-rule="evenodd" data-name="パス 100931"/><path d="M253.175 186.64s.343 1.174 1.065 2.14c.337.456 1.155 1.03 1.403 1.141 1.762.792 5.244 3.432 5.395 5.237.169 1.964-4.119 1.25-5.892.354-3.054-1.546-4.08-3.15-5.606-4.03-1.159-.674-3.628-1.67-3.734-1.944-.057-.142-.211-1.068.055-2.042 4.722 2.857 5.804-.541 7.314-.856Z" fill="#00267e" fill-rule="evenodd" data-name="パス 100932"/></g><g data-name="グループ 47675"><path d="M242.904 193.942c-.112 1.165 1.082 2.849 1.184 2.982.613.79 5.59 6.161 3.043 7.477-2.548 1.315-6.826-.943-7.725-2.856-.899-1.91-.743-3.2-1.886-4.342-.677-.676-1.49-1.573-1.743-2.696-.172-.688.149-1.506.259-1.75.139-.29 1.474 2.427 2.825 2.62 1.191.175 3.16-1.036 4.043-1.435Z" fill="#00267e" fill-rule="evenodd" data-name="パス 100933"/><path d="M237.52 197.203c1.143 1.141.987 2.433 1.886 4.342.9 1.913 5.177 4.171 7.725 2.856.364-.19.576-.462.664-.79-.018.504-.181.943-.648 1.184-2.406 1.244-6.815-.863-7.667-2.67-.83-1.759-.714-2.97-1.708-4.027l-.027.341s-1.148-.94-1.86-2.284l.053-1.13c.346.885 1.013 1.61 1.582 2.178Z" fill="#00267e" fill-rule="evenodd" data-name="パス 100934"/></g><path d="m102.597 69.914-.015-7.065s6.354.684 9.019-2.563c.017-.02.05-.01.05.016-.015 1.233 0 10.673-1.132 23.12-.59 6.49-.584 15.254-.881 18.085-.297 2.83-1.027 7.595.323 10.26 0 0-5.73 1.923-9.243-.802l.935-12.968.944-28.083Z" fill-rule="evenodd" fill="url(&quot;#e&quot;)" transform="translate(144.691 77.552)" data-name="パス 100935"/><path d="M109.576 62.733s-.329 7.811-.928 10.029c-.491 1.812-.743 3.787-.804 4.24-.582 4.407-1.285 11.872-1.497 13.717-.415 3.625-1.818 10.678-2.196 13.139-.374 2.458-1.646 14.938-1.646 14.938s-6.015-.159-8.662-3.554c0 0 .811-11.029 1.27-14.614.458-3.589.44-18.708.482-24.796.04-6.088 2.298-14.42 2.298-14.42s1.197 2.807 11.683 1.321Z" fill-rule="evenodd" fill="url(&quot;#f&quot;)" transform="translate(141.83 78.025)" data-name="パス 100936"/><g data-name="グループ 47676"><path d="M251.406 110.415s3.46 10.077 3.416 14.201c-.044 4.122 1.065 14.128 1.065 14.128s-.813 1.578-4.079 2.164c-3.267.593-5.422.191-5.422.191s-4.233-18.51-5.244-21.155c-1.01-2.645.565-9.94.565-9.94s3.599 3.272 6.529 2.143c2.925-1.13 3.17-1.732 3.17-1.732Z" fill="#e6f6ff" fill-rule="evenodd" data-name="パス 100937"/><path d="m254.182 137.451-1.932 2.58-1.621-1.574s-.214-8.528-.602-13.014c-.337-3.879-.837-7.7-.984-9.907-.885-.372-2.235-1.7-2.235-1.7s.482-1.648 1.428-2.01c.943-.361 2.008 1.116 2.008 1.116s.012 1.458-.308 2.226" fill="#1788dd" fill-rule="evenodd" data-name="パス 100938"/><path d="m98.182 36.142 8.385 3.57s.341 4.347-1.661 4.901c-2.005.554-7.201-4.48-7.201-4.48.88-1.026.477-3.991.477-3.991Z" fill-rule="evenodd" fill="url(&quot;#g&quot;)" transform="translate(143.437 67.51)" data-name="パス 100939"/><path d="M249.4 107.508h.507c1.518 2.888.801 6.79.801 6.79l-2.472-2.472c2.017-1.34 1.164-4.318 1.164-4.318Z" fill="#fdfdfd" fill-rule="evenodd" data-name="パス 100940"/><path d="M241.104 107.144s.912 2.866 7.132 4.682l-1.009 3.423s-5.004-3.114-7.453-6.71l1.33-1.395Z" fill="#fdfdfd" fill-rule="evenodd" data-name="パス 100941"/></g><path d="M106.784 38.833c.964.599 3.9 6.87 4.224 9.707.32 2.838-.324 11.926-.196 15.152.13 3.223 2.776 15.653 2.776 15.653-1.806 5.282-3.162 1.694-3.315.88-1.233-6.596-1.78-20.98-2.685-27.881-.902-6.898-4.319-12.943-4.319-12.943l1.06-1.146 2.455.578Z" fill-rule="evenodd" fill="url(&quot;#h&quot;)" transform="translate(145.752 68.39)" data-name="パス 100942"/><path d="m103.269 39.23 1.592-.567 3.536 5.632-1.041 1.444s1.866.326 2.115.408c.25.084.377 5.966.104 9.605-.153 2.04-.605 4.886-.972 7.003-.33-3.974-.648-7.777-1.015-10.581-.902-6.898-4.319-12.943-4.319-12.943Z" fill-rule="evenodd" fill="url(&quot;#i&quot;)" transform="translate(145.752 68.56)" data-name="パス 100943"/><g data-name="グループ 47677"><path d="M99.507 39.064s2.67 4.945 4.303 7.459c1.636 2.516 4.172 9.823 4.427 14.468.262 4.736.108 21.242-.692 23.035-.8 1.794-13.246-2.203-13.246-2.203s1.244-9.22 2.145-12.997c.895-3.78-1.345-11.62-2.658-13.7-1.313-2.084-2.798-8.132-1.456-9.554 1.35-1.419 6.652-6.297 7.177-6.508Z" fill-rule="evenodd" fill="url(&quot;#j&quot;)" transform="translate(140.981 68.726)" data-name="パス 100944"/><path d="m95.997 40.367 1.764-1.303s2.671 4.945 4.304 7.459c1.635 2.516 4.172 9.823 4.427 14.468.053.943.043 2.31-.006 3.907-.557-1.902-1.603-4.441-1.984-5.52-1.44-4.096-5.286-8.449-4.987-8.961.298-.513 1.763-1.753 1.763-1.753l-2.018.213s-2.343-5.38-3.263-8.51Z" fill-rule="evenodd" fill="url(&quot;#k&quot;)" transform="translate(142.727 68.726)" data-name="パス 100945"/></g><g data-name="グループ 47678"><path d="M98.478 34.79s-.72-.896-1.47-.506c-.745.392-.518 1.124-.127 1.794.388.667 1.79 2.148 2.298 1.692.505-.454-.701-2.98-.701-2.98Z" fill-rule="evenodd" fill="url(&quot;#l&quot;)" transform="translate(142.943 66.696)" data-name="パス 100946"/><path d="M105.988 29.16c1.223.703 2.29 2.639 2.796 3.956.507 1.317.519 2.095.488 2.423-.032.325-.503.82-.295 1.24.211.42.19 1.648.075 2.447-.119.797-.527 1.912-.578 2.625-.053.714.223 2.501-1.587 2.806-1.807.304-6.007-1.27-7.437-3.414-1.428-2.143-3.089-3.888-3.308-6.48-.223-2.598.674-4.855 2.846-6.292 2.174-1.439 5.003-.456 7 .688Z" fill-rule="evenodd" fill="url(&quot;#m&quot;)" transform="translate(142.773 64.02)" data-name="パス 100947"/><path d="M104.346 27.408c3.184.578 4.787 3.136 4.841 4.077.053.941-.687 1.106-.687 1.106-.158.494-.464 1.079-1.063 1.249-1.092.308-4.284-.359-4.901.505-.619.863-.605 1.514-1.11 1.874-.503.358-1.255 2.502-1.27 2.682-.018.171-1.7-1.691-3.269-1.416-.375-.77-.641-1.59-.72-2.521a8.95 8.95 0 0 1-.03-.722c-.891-6.405 5.021-7.408 8.209-6.834Z" fill-rule="evenodd" fill="url(&quot;#n&quot;)" transform="translate(142.747 63.818)" data-name="パス 100948"/><path d="M239.634 101.303c-.375-.77-.641-1.59-.72-2.52a8.923 8.923 0 0 1-.03-.723c1.601 1.19 4.453 1.572 5.568 1.681a1.107 1.107 0 0 1-.28.296c-.502.358-1.254 2.502-1.27 2.682-.016.171-1.699-1.69-3.268-1.416Z" fill="#281080" fill-rule="evenodd" data-name="パス 100949"/></g><g data-name="グループ 47679"><path d="M100.23 57.191s2.15.183 3.145-.201c.998-.387 3.645-.929 5.024-.408 1.382.52 3.44 1.507 4.254 2.443.88 1.008.477 1.536-.088 1.536 0 0 .9.596.382 1.18-.255.287-1.223 0-1.223 0s.57.54 0 .858c-.564.319-1.311.072-1.311.072s-.056.47-.303.585c-.536.254-1.833-.263-2.677-.585-.845-.321-2.52-.456-3.3-.501-.781-.045-2.377-.98-3.198-1.133-.817-.156-2.831.047-2.831.047l2.126-3.893Z" fill-rule="evenodd" fill="url(&quot;#o&quot;)" transform="translate(143.603 75.926)" data-name="パス 100950"/><path d="M245.283 133.027h.95s-1.273 2.603-.56 5.069h-1.524s-.323-.972-.162-2.692c.162-1.722 1.296-2.377 1.296-2.377Z" fill="#eef5f9" fill-rule="evenodd" data-name="パス 100951"/><path d="M106.245 62.41s-1.686 3.386-.586 5.901c0 0-11.245.055-14.103-.67-1.222-.308-2.359-.518-2.898-1.188-.723-.895-.613-2.367-.521-3.68.158-2.294 1.914-10.061 2.918-13.12 1.008-3.057 1.868-7.23 5.66-6.382 3.794.846 3.01 7.39 1.763 10.166-1.246 2.775-3.822 8.41-3.822 8.41l11.59.563Z" fill-rule="evenodd" fill="url(&quot;#p&quot;)" transform="translate(139.428 70.43)" data-name="パス 100952"/></g><g data-name="グループ 47681"><g data-name="グループ 47680"><path d="m123.272 48.4 3.006-1.039s.453-2.236.605-2.581c.156-.343 2.376-1.338 2.618-1.493.24-.151.993-.23 1.095.18 0 0 1.316-.766 2.235-1.29.917-.522 2.362-1.187 2.704-.613.346.573.027.74-.753 1.24-.776.496-2.719 1.721-2.719 1.721l.385.14s1.607-.854 1.966-.842c.357.014.651.307.726.78.077.471-.151 1.072-.151 1.072s.65.166.573.714c-.08.548-.338.81-.537 1.008-.198.197-.882.382-.882.382s.346.191.564.191c.217 0 .892.27.74.714-.154.449-.434.755-1.277.755-.842 0-1.951.318-2.44.69-.481.369-2.13.51-2.884.495-.752-.013-1.91.358-2.766.768-.854.406-1.52.764-1.52.764l-1.288-3.757Z" fill-rule="evenodd" fill="url(&quot;#q&quot;)" transform="translate(154.075 69.674)" data-name="パス 100953"/></g><path d="m279.234 117.23.903-.33 1.278 4.724-1.242.425-.94-4.82Z" fill="#eef5f9" fill-rule="evenodd" data-name="パス 100954"/><path d="M109.946 48.348c-.313-2.746-3.074-8.71-4.125-9.631 0 0 2.23.491 3.944 2.335.951 1.027 6.907 7.461 8 8.383 1.098.924 3.018 2.351 3.018 2.351s2.511-.787 5.047-1.403c2.535-.613 6.718-1.939 6.718-1.939l1.684 5.831s-9.157 3.267-11.663 4.213c-2.504.942-4.107.353-5.912-1.168-1.351-1.14-4.913-4.039-6.63-5.433.022-1.487.007-2.755-.081-3.54Z" fill-rule="evenodd" fill="url(&quot;#r&quot;)" transform="translate(146.814 68.582)" data-name="パス 100955"/><path d="M109.268 47.153c-.162-1.388-.945-3.598-1.817-5.565a8.99 8.99 0 0 1 1.827 1.866c1.601 2.248 3.442 5.394 5.117 7.685 1.541 2.1 4.593 4.131 5.08 6.414-1.273.023-2.345-.459-3.496-1.427-1.351-1.14-4.913-4.04-6.63-5.434.022-1.487.007-2.754-.081-3.539Z" fill-rule="evenodd" fill="url(&quot;#s&quot;)" transform="translate(147.493 69.776)" data-name="パス 100956"/></g></g></g></g><g data-name="グループ 47686"><g data-name="グループ 47685"><path d="M310.733 212.395s1.52.297 1.614.817c.095.52-.476 1.077.221 1.077s2.658-1.82 3.101-1.894c.444-.075.064 2.192 0 2.49-.063.297-5.284 4.237-6.233 3.94-.95-.297-2.975-.818-1.9-2.008 1.077-1.19 2.343-2.34 2.785-3.084.443-.744.412-1.338.412-1.338Z" fill="#0a2a50" fill-rule="evenodd" data-name="パス 100957"/><path d="M301.122 207.695s1.395.273 1.483.752c.086.477-.437.99.202.99.64 0 2.443-1.674 2.85-1.742.407-.068.057 2.015 0 2.288-.059.273-4.855 3.893-5.727 3.62-.873-.274-2.733-.752-1.745-1.844.988-1.093 2.151-2.153 2.559-2.835.406-.683.378-1.23.378-1.23Z" fill="#0a2a50" fill-rule="evenodd" data-name="パス 100958"/><path d="M137.979 78.454s1.688 22.815 2.261 29.593c.558 6.76.75 15.968.75 15.968s.44 1.035 1.996 1.172c.176.018.367.018.528-.017 1.307-.103 2.232-1.086 2.232-1.086s.132-12.726.381-18.555c.25-5.812-.453-20.223-.453-20.223s4.08 20.084 4.52 26.484c.44 6.414.44 16.933.44 16.933s.06.88 1.763 1.242c1.688.38 3.068-1.604 3.068-1.604s1.307-20.021.368-24.59c-.94-4.572.132-22.954-.807-25.317-.94-2.363-17.091-1.26-17.091-1.26l.044 1.26Z" fill-rule="evenodd" fill="url(&quot;#t&quot;)" transform="translate(160.176 84.484)" data-name="パス 100959"/></g><path d="M149.717 44.243s-3.405-.062-2.767 3.719c.637 3.78-3.052 5.269-3.052 5.269s2.621 1.753 5.384-.642c2.763-2.394.435-8.346.435-8.346Z" fill-rule="evenodd" fill="url(&quot;#u&quot;)" transform="translate(162.658 70.88)" data-name="パス 100960"/><path d="M155.816 45.24h1.966s2.394-2.088 3.928.736c1.535 2.825.614 5.218-1.044 8.104-1.657 2.884-3.268 5.831-1.51 8.042 1.757 2.21 3.905 1.107 3.905 1.107s-4.11 2.14-6.813-.65c-2.703-2.79-2.825-8.324-2.825-8.324s3.99-6.621 2.393-9.016Z" fill-rule="evenodd" fill="url(&quot;#v&quot;)" transform="translate(166.62 70.986)" data-name="パス 100961"/><path d="M313.606 128.983s-.22 1.833 1.833 2.272c2.053.44 3.664 0 3.664 0s6.892 3.912 7.698 5.597c.807 1.687-2.64 23.252-4.179 23.506-1.539.252-6.304-2.2-6.304-2.2s-.517 1.044-.957 3.244c-.44 2.199-.165 1.645-.165 1.645s-3.44 1.81-9.215 1.81c-5.925 0-7.9-3.127-7.9-3.127l3.722-17.574s-2.931 4.106-5.717 2.714c-2.786-1.394-9.897-12.535-9.897-12.535s2.054-.515 2.86-1.247c.805-.733.899-1.802.899-1.802s6.725 9.132 7.457 8.913c.733-.22 6.597-9.383 7.698-11.216 1.098-1.834 5.131-.367 6.23 0 1.1.366 2.273 0 2.273 0Z" fill="#eaf1f7" fill-rule="evenodd" data-name="パス 100962"/><path d="M304.631 130.57s-3.203 4.497-3.265 5.975c-.061 1.478 1.04 6.06.739 6.835l-.302.776s-1.718 2.586-3.34 2.773c-1.623.189-2.988-.463-2.988-.463s2.135-.313 3.489-1.854c1.355-1.539 2.525-2.587 2.157-3.694-.37-1.109-.948-4.287.113-5.9 1.06-1.612 3.397-4.447 3.397-4.447Z" fill="#08011c" fill-rule="evenodd" data-name="パス 100963"/><path d="M323.903 138.767s-1.513 1.484-2.583 6.651c-1.072 5.169-1.829 6.933-1.388 8.194.442 1.26 1.45 4.033 1.45 4.033s-2.017-2.848-2.899-3.66c-.882-.815-7.69-9.07-7.69-9.07s7.248 7.877 7.816 7.436c.567-.441 1.89-7.751 2.71-9.894.82-2.144 2.584-3.69 2.584-3.69Z" fill="#08011c" fill-rule="evenodd" data-name="パス 100964"/><path d="M134.586 58.002s-.25-2.248-1.43-3.711c-1.181-1.463-2.398-2.045-2.398-2.045s-.755.27 0 1.157c.755.888.762 1.51.762 1.51s-2.182-1.143-4.047-2.237c-1.864-1.093-2.664.15-.266 2.902 2.397 2.753 4.313 4.427 4.313 4.427s2.232-.156 3.066-2.003Z" fill-rule="evenodd" fill="url(&quot;#w&quot;)" transform="translate(155.093 74.21)" data-name="パス 100965"/><path d="M146.703 69.268s.868-.129 1.493-1.089c.623-.96.623-1.48.623-1.48s-1.892-3.394-2.116-3.691c-.223-.3-4.047-2.388-4.047-2.388s-1.062.037.28 1.194c1.343 1.155 1.499 1.23 1.645 1.938.145.71-.795 3.121-.512 3.613.285.49 2.634 1.903 2.634 1.903Z" fill-rule="evenodd" fill="url(&quot;#x&quot;)" transform="translate(161.975 77.695)" data-name="パス 100966"/><path d="M148.6 47.9s-1.965.554-2.026 2.579c-.062 2.026-.51 5.218.512 5.526 1.022.307 3.6-.492 3.6 0 0 .49-.788 1.645-.788 1.645s-.378 1.585 1.832 2.271c2.21.687 3.93 0 3.93 0s-.676-5.943.307-6.987c.982-1.043 1.228-7.059 0-7.55-1.227-.491-7.368 2.516-7.368 2.516Z" fill-rule="evenodd" fill="url(&quot;#y&quot;)" transform="translate(163.708 71.333)" data-name="パス 100967"/><path d="M156.818 43.522s-3.744-1.657-7.182.307-2.77 5.526-1.017 7.183c1.753 1.658 4.393 1.658 4.393 1.658s.37-1.78 1.29-1.044c.92.737-.97 1.59-.976 2.177-.007.586.116 2.61 2.204 1.814 2.087-.799 3.79-2.119 4.35-5.541.56-3.423-.664-5.96-3.062-6.554Z" fill-rule="evenodd" fill="url(&quot;#z&quot;)" transform="translate(164.023 70.31)" data-name="パス 100968"/></g></g></g><defs><linearGradient x1="0" y1=".5" x2="1" y2=".5" id="a"><stop stop-color="#1788dd" offset="0"/><stop stop-color="#2c9dbc" offset="1"/></linearGradient><linearGradient x1=".245" y1="-5.426" x2=".523" y2="-3.855" id="b"><stop stop-color="#66d5ea" offset="0"/><stop stop-color="#0087e7" offset="1"/></linearGradient><linearGradient x1=".478" y1="-2.529" x2=".498" y2="-1.738" id="c"><stop stop-color="#66d5ea" offset="0"/><stop stop-color="#0087e7" offset="1"/></linearGradient><linearGradient x1="0" y1=".5" x2="1" y2=".5" id="d"><stop stop-color="#2c9dbc" offset="0"/><stop stop-color="#1788dd" offset=".992"/></linearGradient><linearGradient x1="0" y1=".5" x2="1" y2=".5" id="e"><stop stop-color="#3060ab" offset="0"/><stop stop-color="#131e60" offset="1"/></linearGradient><linearGradient x1="0" y1=".5" x2="1" y2=".5" id="f"><stop stop-color="#3060ab" offset="0"/><stop stop-color="#131e60" offset="1"/></linearGradient><linearGradient x1="0" y1=".5" x2="1" y2=".5" id="g"><stop stop-color="#ffd9d9" offset="0"/><stop stop-color="#efb4b4" offset="1"/></linearGradient><linearGradient x1="0" y1=".5" x2="1" y2=".5" id="h"><stop stop-color="#3060ab" offset="0"/><stop stop-color="#131e60" offset="1"/></linearGradient><linearGradient x1="0" y1=".5" x2="1" y2=".5" id="i"><stop stop-color="#3060ab" offset="0"/><stop stop-color="#131e60" offset="1"/></linearGradient><linearGradient x1="0" y1=".5" x2="1" y2=".5" id="j"><stop stop-color="#3060ab" offset="0"/><stop stop-color="#131e60" offset="1"/></linearGradient><linearGradient x1="0" y1=".5" x2="1" y2=".5" id="k"><stop stop-color="#3060ab" offset="0"/><stop stop-color="#131e60" offset="1"/></linearGradient><linearGradient x1="0" y1=".5" x2="1" y2=".5" id="l"><stop stop-color="#ffd9d9" offset="0"/><stop stop-color="#efb4b4" offset="1"/></linearGradient><linearGradient x1="0" y1=".5" x2="1" y2=".5" id="m"><stop stop-color="#ffd9d9" offset="0"/><stop stop-color="#efb4b4" offset="1"/></linearGradient><linearGradient x1="0" y1=".5" x2="1" y2=".5" id="n"><stop stop-color="#3060ab" offset="0"/><stop stop-color="#131e60" offset="1"/></linearGradient><linearGradient x1="0" y1=".5" x2="1" y2=".5" id="o"><stop stop-color="#ffd9d9" offset="0"/><stop stop-color="#efb4b4" offset="1"/></linearGradient><linearGradient x1="0" y1=".5" x2="1" y2=".5" id="p"><stop stop-color="#3060ab" offset="0"/><stop stop-color="#131e60" offset="1"/></linearGradient><linearGradient x1="0" y1=".5" x2="1" y2=".5" id="q"><stop stop-color="#ffd9d9" offset="0"/><stop stop-color="#efb4b4" offset="1"/></linearGradient><linearGradient x1="0" y1=".5" x2="1" y2=".5" id="r"><stop stop-color="#3060ab" offset="0"/><stop stop-color="#131e60" offset="1"/></linearGradient><linearGradient x1="0" y1=".5" x2="1" y2=".5" id="s"><stop stop-color="#3060ab" offset="0"/><stop stop-color="#131e60" offset="1"/></linearGradient><linearGradient x1="351.19" y1=".543" x2="352.605" y2=".4" id="t"><stop stop-color="#3060ab" offset="0"/><stop stop-color="#131e60" offset="1"/></linearGradient><linearGradient x1="0" y1=".5" x2="1" y2=".5" id="u"><stop stop-color="#3060ab" offset="0"/><stop stop-color="#131e60" offset="1"/></linearGradient><linearGradient x1="0" y1=".5" x2="1" y2=".5" id="v"><stop stop-color="#3060ab" offset="0"/><stop stop-color="#131e60" offset="1"/></linearGradient><linearGradient x1="0" y1=".5" x2="1" y2=".5" id="w"><stop stop-color="#ffd9d9" offset="0"/><stop stop-color="#efb4b4" offset="1"/></linearGradient><linearGradient x1="0" y1=".5" x2="1" y2=".5" id="x"><stop stop-color="#ffd9d9" offset="0"/><stop stop-color="#efb4b4" offset="1"/></linearGradient><linearGradient x1="0" y1=".5" x2="1" y2=".5" id="y"><stop stop-color="#ffd9d9" offset="0"/><stop stop-color="#efb4b4" offset="1"/></linearGradient><linearGradient x1="0" y1=".5" x2="1" y2=".5" id="z"><stop stop-color="#3060ab" offset="0"/><stop stop-color="#131e60" offset="1"/></linearGradient></defs></svg>