<svg xmlns="http://www.w3.org/2000/svg" width="125" height="117.398" viewBox="345.558 90.357 125 117.398"><g data-name="アートワーク 39"><g data-name="グループ 47727"><g data-name="グループ 47720"><g data-name="グループ 47719"><path d="M371.121 137.717v44.738c0 1.484 1.537 2.473 2.879 1.846l53.364-24.934a3.885 3.885 0 0 0 2.243-3.523v-43.537c0-.53-.16-1.007-.433-1.404a2.502 2.502 0 0 0-3.152-.883l-53.046 24.784a3.182 3.182 0 0 0-1.775 2.26c-.053.212-.08.433-.08.653Z" fill="#aebcc4" fill-rule="evenodd" data-name="パス 101027"/><path d="M372.877 138.407v44.738c0 1.483 1.536 2.472 2.878 1.845l53.364-24.934a3.885 3.885 0 0 0 2.243-3.523v-43.537c0-.53-.159-1.006-.433-1.404a2.502 2.502 0 0 0-3.152-.883l-53.046 24.784a3.182 3.182 0 0 0-1.775 2.26c-.053.212-.08.433-.08.654Z" fill="#dee4e9" fill-rule="evenodd" data-name="パス 101028"/><path d="M254.06 197.237a1.75 1.75 0 0 0 1.01-1.585v-43.537a.308.308 0 0 0-.054-.189c-.089-.132-.21-.199-.326-.199a.38.38 0 0 0-.162.04l-53.045 24.783c-.301.14-.518.416-.582.738l-.023.105a.53.53 0 0 0-.016.133v44.568l53.199-24.857Z" fill-rule="evenodd" fill="url(&quot;#a&quot;)" transform="translate(174.153 -39.119)" data-name="パス 101029"/><path d="M376.2 188.602c0 .884.47 1.767 1.404 2.21l34.486 16.023a9.696 9.696 0 0 0 3.462.895 9.642 9.642 0 0 0 4.764-.873l48.737-22.515a2.568 2.568 0 0 0 1.47-1.912c.174-1.068-.307-2.232-1.448-2.774l-34.167-16.242a8.283 8.283 0 0 0-7.018-.05l-50.269 23.03a2.345 2.345 0 0 0-1.353 1.671 2.172 2.172 0 0 0-.068.537Z" fill="#aebcc4" fill-rule="evenodd" data-name="パス 101030"/><path d="M376.2 186.08c0 .883.47 1.767 1.404 2.208l34.486 16.024a9.695 9.695 0 0 0 3.462.895 9.646 9.646 0 0 0 4.764-.873l48.737-22.514a2.568 2.568 0 0 0 1.47-1.913c.174-1.068-.307-2.231-1.448-2.774l-34.167-16.241a8.283 8.283 0 0 0-7.018-.05l-50.269 23.028a2.346 2.346 0 0 0-1.353 1.673 2.173 2.173 0 0 0-.068.536Z" fill="#dee4e9" fill-rule="evenodd" data-name="パス 101031"/><g data-name="グループ 47718"><g data-name="グループ 47712"><path d="M427.84 164.97c0 .034.019.069.056.087l1.397.642a.41.41 0 0 0 .333.006l1.975-.848a.098.098 0 0 0 0-.182l-1.383-.651a.348.348 0 0 0-.285-.006l-2.036.867a.09.09 0 0 0-.058.085Z" fill="#fff" fill-rule="evenodd" data-name="パス 101032"/><path d="M424.644 166.443c0 .035.02.07.057.087l1.397.642a.406.406 0 0 0 .333.006l1.975-.848a.098.098 0 0 0 .059-.073.1.1 0 0 0-.059-.11l-1.384-.65a.348.348 0 0 0-.284-.006l-2.036.867a.09.09 0 0 0-.055.064.084.084 0 0 0-.003.021Z" fill="#fff" fill-rule="evenodd" data-name="パス 101033"/><path d="M421.45 167.916c0 .035.018.07.056.087l1.397.643a.413.413 0 0 0 .333.005l1.974-.848a.098.098 0 0 0 .001-.182l-1.384-.65a.349.349 0 0 0-.284-.007l-2.036.867a.091.091 0 0 0-.058.085Z" fill="#fff" fill-rule="evenodd" data-name="パス 101034"/><path d="M418.254 169.39c0 .034.02.069.057.086l1.397.643a.41.41 0 0 0 .333.005l1.974-.847a.099.099 0 0 0 .06-.074.1.1 0 0 0-.059-.109l-1.384-.65a.348.348 0 0 0-.284-.007l-2.036.868a.09.09 0 0 0-.055.064.084.084 0 0 0-.003.02Z" fill="#fff" fill-rule="evenodd" data-name="パス 101035"/><path d="M415.06 170.863c0 .034.018.069.056.087l1.397.642a.408.408 0 0 0 .333.006l1.974-.848a.099.099 0 0 0 .06-.074.1.1 0 0 0-.059-.108l-1.384-.651a.348.348 0 0 0-.284-.006l-2.036.867a.09.09 0 0 0-.058.085Z" fill="#fff" fill-rule="evenodd" data-name="パス 101036"/><path d="M411.864 172.336c0 .034.02.07.057.087l1.397.642a.41.41 0 0 0 .333.006l1.974-.848a.099.099 0 0 0 .06-.074.1.1 0 0 0-.059-.108l-1.384-.651a.348.348 0 0 0-.284-.006l-2.036.867a.09.09 0 0 0-.055.064.082.082 0 0 0-.003.021Z" fill="#fff" fill-rule="evenodd" data-name="パス 101037"/><path d="M408.67 173.81c0 .034.018.068.056.086l1.397.643a.412.412 0 0 0 .333.005l1.974-.848a.099.099 0 0 0 .06-.073.1.1 0 0 0-.059-.109l-1.384-.65a.35.35 0 0 0-.284-.007l-2.036.867a.09.09 0 0 0-.058.085Z" fill="#fff" fill-rule="evenodd" data-name="パス 101038"/><path d="M405.474 175.283c0 .034.019.069.057.086l1.397.643a.407.407 0 0 0 .333.005l1.974-.847a.098.098 0 0 0 .001-.183l-1.384-.65a.348.348 0 0 0-.284-.007l-2.036.867a.09.09 0 0 0-.055.065.081.081 0 0 0-.003.02Z" fill="#fff" fill-rule="evenodd" data-name="パス 101039"/><path d="M402.279 176.756c0 .034.019.069.057.087l1.397.642a.408.408 0 0 0 .333.006l1.974-.848a.099.099 0 0 0 0-.182l-1.383-.651a.349.349 0 0 0-.284-.006l-2.037.867a.09.09 0 0 0-.057.085Z" fill="#fff" fill-rule="evenodd" data-name="パス 101040"/><path d="M399.084 178.23c0 .034.019.068.057.086l1.397.642a.409.409 0 0 0 .333.006l1.974-.848a.098.098 0 0 0 0-.182l-1.383-.651a.349.349 0 0 0-.284-.006l-2.037.867a.09.09 0 0 0-.054.064.083.083 0 0 0-.003.021Z" fill="#fff" fill-rule="evenodd" data-name="パス 101041"/><path d="M395.889 179.702c0 .035.019.07.057.087l1.396.643a.411.411 0 0 0 .334.005l1.974-.848a.099.099 0 0 0 .06-.073.1.1 0 0 0-.06-.109l-1.383-.65a.348.348 0 0 0-.284-.007l-2.037.867a.091.091 0 0 0-.057.085Z" fill="#fff" fill-rule="evenodd" data-name="パス 101042"/><path d="M392.694 181.176c0 .034.019.069.057.086l1.396.643a.406.406 0 0 0 .334.006l1.974-.848a.099.099 0 0 0 .06-.074.1.1 0 0 0-.06-.109l-1.383-.65a.348.348 0 0 0-.284-.006l-2.037.867a.09.09 0 0 0-.055.064.083.083 0 0 0-.002.02Z" fill="#fff" fill-rule="evenodd" data-name="パス 101043"/><path d="M389.499 182.649c0 .034.019.069.056.087l1.397.642a.411.411 0 0 0 .334.006l1.974-.848a.099.099 0 0 0 .06-.074.1.1 0 0 0-.06-.108l-1.383-.651a.349.349 0 0 0-.285-.006l-2.036.867a.09.09 0 0 0-.057.085Z" fill="#fff" fill-rule="evenodd" data-name="パス 101044"/><path d="M386.304 184.122c0 .035.019.07.056.087l1.397.643a.41.41 0 0 0 .334.005l1.974-.848a.099.099 0 0 0 .06-.073.1.1 0 0 0-.06-.109l-1.383-.65a.349.349 0 0 0-.285-.007l-2.036.867a.09.09 0 0 0-.055.064.082.082 0 0 0-.002.021Z" fill="#fff" fill-rule="evenodd" data-name="パス 101045"/></g><g data-name="グループ 47713"><path d="M430.278 166.133c0 .034.019.07.057.087l1.396.642a.413.413 0 0 0 .334.006l1.974-.848a.098.098 0 0 0 .06-.074.1.1 0 0 0-.06-.108l-1.383-.651a.349.349 0 0 0-.284-.006l-2.037.867a.09.09 0 0 0-.054.064.076.076 0 0 0-.003.021Z" fill="#fff" fill-rule="evenodd" data-name="パス 101046"/><path d="M427.083 167.606c0 .035.019.07.057.087l1.396.643a.412.412 0 0 0 .334.005l1.974-.848a.099.099 0 0 0 .06-.073.1.1 0 0 0-.06-.109l-1.383-.65a.348.348 0 0 0-.284-.007l-2.037.867a.09.09 0 0 0-.055.064.083.083 0 0 0-.002.021Z" fill="#fff" fill-rule="evenodd" data-name="パス 101047"/><path d="M423.888 169.08c0 .034.019.069.057.086l1.396.643a.41.41 0 0 0 .334.006l1.974-.848a.099.099 0 0 0 .06-.074.1.1 0 0 0-.06-.109l-1.383-.65a.348.348 0 0 0-.285-.006l-2.036.867a.09.09 0 0 0-.055.064.078.078 0 0 0-.002.02Z" fill="#fff" fill-rule="evenodd" data-name="パス 101048"/><path d="M420.693 170.553c0 .034.019.069.056.087l1.397.642a.41.41 0 0 0 .334.006l1.974-.848a.099.099 0 0 0 .06-.074.1.1 0 0 0-.06-.108l-1.383-.651a.348.348 0 0 0-.285-.006l-2.036.867a.09.09 0 0 0-.055.064.083.083 0 0 0-.002.02Z" fill="#fff" fill-rule="evenodd" data-name="パス 101049"/><path d="M417.498 172.026c0 .035.019.07.057.087l1.396.643a.412.412 0 0 0 .334.005l1.974-.848a.099.099 0 0 0 .06-.074.1.1 0 0 0-.06-.108l-1.383-.651a.35.35 0 0 0-.285-.006l-2.036.867a.09.09 0 0 0-.055.064.077.077 0 0 0-.002.021Z" fill="#fff" fill-rule="evenodd" data-name="パス 101050"/><path d="M414.303 173.5c0 .034.019.068.056.086l1.397.643a.408.408 0 0 0 .333.005l1.975-.848a.098.098 0 0 0 0-.182l-1.383-.65a.349.349 0 0 0-.285-.007l-2.036.867a.09.09 0 0 0-.055.065.081.081 0 0 0-.002.02Z" fill="#fff" fill-rule="evenodd" data-name="パス 101051"/><path d="M411.107 174.973c0 .034.02.069.057.086l1.397.643a.408.408 0 0 0 .333.005l1.975-.847a.098.098 0 0 0 0-.183l-1.383-.65a.348.348 0 0 0-.285-.007l-2.036.867a.09.09 0 0 0-.055.065.078.078 0 0 0-.003.02Z" fill="#fff" fill-rule="evenodd" data-name="パス 101052"/><path d="M407.912 176.446c0 .034.02.069.057.087l1.397.642a.41.41 0 0 0 .333.006l1.975-.848a.099.099 0 0 0 .06-.074.1.1 0 0 0-.06-.108l-1.384-.651a.349.349 0 0 0-.284-.006l-2.036.867a.09.09 0 0 0-.055.064.083.083 0 0 0-.003.02Z" fill="#fff" fill-rule="evenodd" data-name="パス 101053"/><path d="M404.717 177.92c0 .034.02.068.057.086l1.397.642a.41.41 0 0 0 .333.006l1.974-.848a.098.098 0 0 0 .06-.073.1.1 0 0 0-.059-.11l-1.384-.65a.348.348 0 0 0-.284-.006l-2.036.867a.09.09 0 0 0-.055.064.078.078 0 0 0-.003.021Z" fill="#fff" fill-rule="evenodd" data-name="パス 101054"/><path d="M401.522 179.392c0 .035.02.07.057.087l1.397.643a.409.409 0 0 0 .333.005l1.974-.848a.099.099 0 0 0 .06-.073.1.1 0 0 0-.059-.109l-1.384-.65a.348.348 0 0 0-.284-.007l-2.036.867a.09.09 0 0 0-.055.065.083.083 0 0 0-.003.02Z" fill="#fff" fill-rule="evenodd" data-name="パス 101055"/><path d="M398.327 180.866c0 .034.02.069.057.086l1.397.643a.41.41 0 0 0 .333.005l1.974-.847a.099.099 0 0 0 .06-.074.1.1 0 0 0-.059-.109l-1.384-.65a.348.348 0 0 0-.284-.006l-2.036.867a.09.09 0 0 0-.055.064.076.076 0 0 0-.003.02Z" fill="#fff" fill-rule="evenodd" data-name="パス 101056"/><path d="M395.132 182.339c0 .034.02.069.057.087l1.397.642a.411.411 0 0 0 .333.006l1.974-.848a.099.099 0 0 0 .06-.074.1.1 0 0 0-.059-.108l-1.384-.651a.349.349 0 0 0-.284-.006l-2.036.867a.09.09 0 0 0-.055.064.082.082 0 0 0-.003.02Z" fill="#fff" fill-rule="evenodd" data-name="パス 101057"/><path d="M391.937 183.812c0 .035.02.07.057.087l1.397.642a.408.408 0 0 0 .333.006l1.974-.848a.098.098 0 0 0 .001-.182l-1.384-.651a.348.348 0 0 0-.284-.006l-2.036.867a.09.09 0 0 0-.055.064.076.076 0 0 0-.003.021Z" fill="#fff" fill-rule="evenodd" data-name="パス 101058"/><path d="M388.742 185.286c0 .034.02.068.057.086l1.397.643a.408.408 0 0 0 .333.005l1.974-.848a.098.098 0 0 0 .001-.182l-1.384-.65a.348.348 0 0 0-.284-.007l-2.036.867a.09.09 0 0 0-.055.065.083.083 0 0 0-.003.02Z" fill="#fff" fill-rule="evenodd" data-name="パス 101059"/></g><g data-name="グループ 47714"><path d="M432.716 167.296c0 .035.02.07.057.087l1.397.643a.41.41 0 0 0 .333.005l1.974-.848a.099.099 0 0 0 .06-.073.1.1 0 0 0-.059-.11l-1.384-.65a.348.348 0 0 0-.284-.006l-2.036.867a.09.09 0 0 0-.055.064.078.078 0 0 0-.003.021Z" fill="#fff" fill-rule="evenodd" data-name="パス 101060"/><path d="M429.521 168.77c0 .034.02.069.057.086l1.397.643a.41.41 0 0 0 .333.005l1.974-.847a.099.099 0 0 0 .06-.074.1.1 0 0 0-.059-.109l-1.384-.65a.348.348 0 0 0-.284-.007l-2.036.868a.09.09 0 0 0-.058.085Z" fill="#fff" fill-rule="evenodd" data-name="パス 101061"/><path d="M426.326 170.243c0 .034.02.069.057.086l1.397.643a.409.409 0 0 0 .333.006l1.974-.848a.099.099 0 0 0 .06-.074.1.1 0 0 0-.059-.109l-1.384-.65a.348.348 0 0 0-.284-.006l-2.036.867a.09.09 0 0 0-.055.064.077.077 0 0 0-.003.02Z" fill="#fff" fill-rule="evenodd" data-name="パス 101062"/><path d="M423.131 171.716c0 .034.02.069.057.087l1.397.642a.411.411 0 0 0 .333.006l1.974-.848a.098.098 0 0 0 .001-.182l-1.384-.651a.349.349 0 0 0-.284-.006l-2.036.867a.09.09 0 0 0-.055.064.081.081 0 0 0-.003.021Z" fill="#fff" fill-rule="evenodd" data-name="パス 101063"/><path d="M419.936 173.19c0 .034.02.068.057.086l1.397.643a.407.407 0 0 0 .333.005l1.974-.848a.098.098 0 0 0 .001-.182l-1.384-.65a.348.348 0 0 0-.284-.007l-2.036.867a.09.09 0 0 0-.055.064.078.078 0 0 0-.003.021Z" fill="#fff" fill-rule="evenodd" data-name="パス 101064"/><path d="M416.741 174.662c0 .035.019.07.057.087l1.397.643a.413.413 0 0 0 .333.005l1.974-.848a.098.098 0 0 0 .001-.182l-1.384-.65a.349.349 0 0 0-.284-.007l-2.036.867a.09.09 0 0 0-.058.085Z" fill="#fff" fill-rule="evenodd" data-name="パス 101065"/><path d="M413.546 176.136c0 .034.019.069.057.086l1.397.643a.41.41 0 0 0 .333.006l1.974-.848a.099.099 0 0 0 .06-.074.1.1 0 0 0-.059-.108l-1.384-.651a.348.348 0 0 0-.284-.006l-2.036.867a.09.09 0 0 0-.055.064.078.078 0 0 0-.003.02Z" fill="#fff" fill-rule="evenodd" data-name="パス 101066"/><path d="M410.35 177.61c0 .033.02.068.058.086l1.396.642a.41.41 0 0 0 .334.006l1.974-.848a.098.098 0 0 0 0-.182l-1.383-.651a.348.348 0 0 0-.284-.006l-2.037.867a.09.09 0 0 0-.057.085Z" fill="#fff" fill-rule="evenodd" data-name="パス 101067"/><path d="M407.156 179.082c0 .035.019.07.057.087l1.397.643a.41.41 0 0 0 .333.005l1.974-.848a.099.099 0 0 0 .06-.073.1.1 0 0 0-.06-.109l-1.383-.65a.348.348 0 0 0-.284-.007l-2.037.867a.09.09 0 0 0-.054.065.078.078 0 0 0-.003.02Z" fill="#fff" fill-rule="evenodd" data-name="パス 101068"/><path d="M403.96 180.556c0 .034.02.069.058.086l1.396.643a.41.41 0 0 0 .334.005l1.974-.847a.099.099 0 0 0 .06-.074.1.1 0 0 0-.06-.109l-1.383-.65a.349.349 0 0 0-.284-.007l-2.037.868a.09.09 0 0 0-.055.064.082.082 0 0 0-.002.02Z" fill="#fff" fill-rule="evenodd" data-name="パス 101069"/><path d="M400.766 182.029c0 .034.019.069.057.087l1.396.642a.407.407 0 0 0 .334.006l1.974-.848a.099.099 0 0 0 .06-.074.1.1 0 0 0-.06-.108l-1.383-.651a.349.349 0 0 0-.284-.006l-2.037.867a.09.09 0 0 0-.055.064.077.077 0 0 0-.002.02Z" fill="#fff" fill-rule="evenodd" data-name="パス 101070"/><path d="M397.57 183.502c0 .035.02.07.057.087l1.397.642a.408.408 0 0 0 .333.006l1.975-.848a.098.098 0 0 0 0-.182l-1.383-.651a.348.348 0 0 0-.285-.006l-2.036.867a.09.09 0 0 0-.057.085Z" fill="#fff" fill-rule="evenodd" data-name="パス 101071"/><path d="M394.376 184.975c0 .035.019.07.056.087l1.397.643a.412.412 0 0 0 .333.005l1.975-.848a.098.098 0 0 0 0-.182l-1.383-.65a.349.349 0 0 0-.285-.007l-2.036.867a.09.09 0 0 0-.055.064.078.078 0 0 0-.002.021Z" fill="#fff" fill-rule="evenodd" data-name="パス 101072"/><path d="M391.18 186.449c0 .034.02.069.057.086l1.397.643a.413.413 0 0 0 .333.005l1.975-.847a.099.099 0 0 0 .06-.074.1.1 0 0 0-.06-.109l-1.383-.65a.348.348 0 0 0-.285-.006l-2.036.867a.09.09 0 0 0-.057.085Z" fill="#fff" fill-rule="evenodd" data-name="パス 101073"/></g><g data-name="グループ 47715"><path d="M435.155 168.46c0 .034.019.068.057.086l1.396.643a.413.413 0 0 0 .334.005l1.974-.848a.099.099 0 0 0 .06-.073.1.1 0 0 0-.06-.109l-1.383-.65a.349.349 0 0 0-.284-.007l-2.037.867a.09.09 0 0 0-.055.065.085.085 0 0 0-.002.02Z" fill="#fff" fill-rule="evenodd" data-name="パス 101074"/><path d="M431.96 169.933c0 .034.019.069.057.087l1.396.642a.411.411 0 0 0 .334.006l1.974-.848a.099.099 0 0 0 .06-.074.101.101 0 0 0-.06-.109l-1.383-.65a.349.349 0 0 0-.285-.006l-2.036.867a.09.09 0 0 0-.057.085Z" fill="#fff" fill-rule="evenodd" data-name="パス 101075"/><path d="M428.765 171.406c0 .034.019.069.056.087l1.397.642a.407.407 0 0 0 .333.006l1.975-.848a.099.099 0 0 0 .06-.074.1.1 0 0 0-.06-.108l-1.383-.651a.348.348 0 0 0-.285-.006l-2.036.867a.09.09 0 0 0-.055.064.082.082 0 0 0-.002.021Z" fill="#fff" fill-rule="evenodd" data-name="パス 101076"/><path d="M425.57 172.88c0 .034.019.068.056.086l1.397.642a.41.41 0 0 0 .334.006l1.974-.848a.099.099 0 0 0 .06-.073.1.1 0 0 0-.06-.109l-1.383-.651a.349.349 0 0 0-.285-.006l-2.036.867a.09.09 0 0 0-.057.085Z" fill="#fff" fill-rule="evenodd" data-name="パス 101077"/><path d="M422.374 174.353c0 .034.02.069.057.086l1.397.643a.41.41 0 0 0 .333.005l1.975-.848a.098.098 0 0 0 0-.182l-1.383-.65a.348.348 0 0 0-.285-.007l-2.036.867a.09.09 0 0 0-.055.065.083.083 0 0 0-.003.02Z" fill="#fff" fill-rule="evenodd" data-name="パス 101078"/><path d="M419.18 175.826c0 .034.018.069.056.086l1.397.643a.411.411 0 0 0 .333.006l1.975-.848a.099.099 0 0 0 .06-.074.101.101 0 0 0-.06-.109l-1.383-.65a.348.348 0 0 0-.285-.006l-2.036.867a.09.09 0 0 0-.058.085Z" fill="#fff" fill-rule="evenodd" data-name="パス 101079"/><path d="M415.984 177.299c0 .034.02.069.057.087l1.397.642a.411.411 0 0 0 .333.006l1.974-.848a.099.099 0 0 0 .06-.074.1.1 0 0 0-.059-.108l-1.384-.651a.348.348 0 0 0-.284-.006l-2.036.867a.09.09 0 0 0-.055.064.084.084 0 0 0-.003.021Z" fill="#fff" fill-rule="evenodd" data-name="パス 101080"/><path d="M412.79 178.772c0 .035.018.07.056.087l1.397.643a.412.412 0 0 0 .333.005l1.974-.848a.099.099 0 0 0 .06-.073.1.1 0 0 0-.059-.109l-1.384-.65a.349.349 0 0 0-.284-.007l-2.036.867a.09.09 0 0 0-.058.085Z" fill="#fff" fill-rule="evenodd" data-name="パス 101081"/><path d="M409.594 180.246c0 .034.02.069.057.086l1.397.643a.412.412 0 0 0 .333.005l1.974-.848a.098.098 0 0 0 .001-.182l-1.384-.65a.349.349 0 0 0-.284-.007l-2.036.867a.09.09 0 0 0-.055.065.082.082 0 0 0-.003.02Z" fill="#fff" fill-rule="evenodd" data-name="パス 101082"/><path d="M406.4 181.719c0 .034.018.069.056.087l1.397.642a.41.41 0 0 0 .333.006l1.974-.848a.099.099 0 0 0 .06-.074.1.1 0 0 0-.059-.108l-1.384-.651a.348.348 0 0 0-.284-.006l-2.036.867a.091.091 0 0 0-.058.085Z" fill="#fff" fill-rule="evenodd" data-name="パス 101083"/><path d="M403.204 183.192c0 .034.02.07.057.087l1.397.642a.41.41 0 0 0 .333.006l1.974-.848a.098.098 0 0 0 .001-.182l-1.384-.651a.349.349 0 0 0-.284-.006l-2.036.867a.09.09 0 0 0-.055.064.084.084 0 0 0-.003.021Z" fill="#fff" fill-rule="evenodd" data-name="パス 101084"/><path d="M400.009 184.665c0 .035.02.07.057.087l1.397.643a.411.411 0 0 0 .333.005l1.974-.848a.099.099 0 0 0 .06-.073.101.101 0 0 0-.059-.109l-1.384-.65a.348.348 0 0 0-.284-.007l-2.036.867a.09.09 0 0 0-.058.085Z" fill="#fff" fill-rule="evenodd" data-name="パス 101085"/><path d="M396.814 186.139c0 .034.019.069.057.086l1.397.643a.41.41 0 0 0 .333.006l1.974-.848a.099.099 0 0 0 .06-.074.101.101 0 0 0-.059-.109l-1.384-.65a.348.348 0 0 0-.284-.006l-2.036.867a.09.09 0 0 0-.055.064.083.083 0 0 0-.003.02Z" fill="#fff" fill-rule="evenodd" data-name="パス 101086"/><path d="M393.619 187.612c0 .034.019.069.057.086l1.397.643a.412.412 0 0 0 .333.006l1.974-.848a.1.1 0 0 0 .06-.074.101.101 0 0 0-.059-.109l-1.384-.65a.348.348 0 0 0-.284-.006l-2.037.867a.09.09 0 0 0-.057.085Z" fill="#fff" fill-rule="evenodd" data-name="パス 101087"/></g><g data-name="グループ 47716"><path d="M437.593 169.623c0 .034.02.069.057.086l1.397.643a.407.407 0 0 0 .333.006l1.974-.848a.099.099 0 0 0 .06-.074.1.1 0 0 0-.059-.109l-1.384-.65a.348.348 0 0 0-.284-.006l-2.036.867a.09.09 0 0 0-.055.064.082.082 0 0 0-.003.02Z" fill="#fff" fill-rule="evenodd" data-name="パス 101088"/><path d="M434.398 171.096c0 .034.02.069.057.087l1.397.642a.407.407 0 0 0 .333.006l1.974-.848a.098.098 0 0 0 .001-.182l-1.384-.651a.349.349 0 0 0-.284-.006l-2.036.867a.09.09 0 0 0-.055.064.076.076 0 0 0-.003.02Z" fill="#fff" fill-rule="evenodd" data-name="パス 101089"/><path d="M431.203 172.57c0 .034.019.068.057.086l1.397.642a.412.412 0 0 0 .333.006l1.974-.848a.099.099 0 0 0 .001-.182l-1.384-.651a.349.349 0 0 0-.284-.006l-2.036.867a.09.09 0 0 0-.058.085Z" fill="#fff" fill-rule="evenodd" data-name="パス 101090"/><path d="M428.008 174.042c0 .035.019.07.057.087l1.397.643a.41.41 0 0 0 .333.005l1.974-.848a.099.099 0 0 0 .06-.073.101.101 0 0 0-.059-.109l-1.384-.65a.348.348 0 0 0-.284-.007l-2.037.867a.09.09 0 0 0-.054.065.076.076 0 0 0-.003.02Z" fill="#fff" fill-rule="evenodd" data-name="パス 101091"/><path d="M424.813 175.516c0 .034.019.069.057.086l1.397.643a.41.41 0 0 0 .333.006l1.974-.848a.099.099 0 0 0 .06-.074.101.101 0 0 0-.06-.109l-1.383-.65a.348.348 0 0 0-.284-.006l-2.037.867a.09.09 0 0 0-.054.064.083.083 0 0 0-.003.02Z" fill="#fff" fill-rule="evenodd" data-name="パス 101092"/><path d="M421.618 176.989c0 .034.019.069.057.087l1.397.642a.41.41 0 0 0 .333.006l1.974-.848a.099.099 0 0 0 .06-.074.1.1 0 0 0-.06-.108l-1.383-.651a.35.35 0 0 0-.284-.006l-2.037.867a.09.09 0 0 0-.054.064.075.075 0 0 0-.003.021Z" fill="#fff" fill-rule="evenodd" data-name="パス 101093"/><path d="M418.423 178.462c0 .035.019.07.057.087l1.396.643a.41.41 0 0 0 .334.005l1.974-.848a.099.099 0 0 0 .06-.073.1.1 0 0 0-.06-.109l-1.383-.65a.349.349 0 0 0-.284-.007l-2.037.867a.09.09 0 0 0-.054.064.081.081 0 0 0-.003.021Z" fill="#fff" fill-rule="evenodd" data-name="パス 101094"/><path d="M415.228 179.936c0 .034.019.069.057.086l1.396.643a.407.407 0 0 0 .334.005l1.974-.848a.098.098 0 0 0 .06-.073.1.1 0 0 0-.06-.109l-1.383-.65a.348.348 0 0 0-.285-.007l-2.036.867a.09.09 0 0 0-.055.065.076.076 0 0 0-.002.02Z" fill="#fff" fill-rule="evenodd" data-name="パス 101095"/><path d="M412.033 181.409c0 .034.019.069.056.087l1.397.642a.408.408 0 0 0 .334.006l1.974-.848a.099.099 0 0 0 0-.183l-1.383-.65a.349.349 0 0 0-.285-.006l-2.036.867a.09.09 0 0 0-.055.064.085.085 0 0 0-.002.02Z" fill="#fff" fill-rule="evenodd" data-name="パス 101096"/><path d="M408.838 182.882c0 .034.019.069.056.087l1.397.642a.41.41 0 0 0 .334.006l1.974-.848a.098.098 0 0 0 .06-.074.1.1 0 0 0-.06-.108l-1.383-.651a.348.348 0 0 0-.285-.006l-2.036.867a.09.09 0 0 0-.055.064.077.077 0 0 0-.002.02Z" fill="#fff" fill-rule="evenodd" data-name="パス 101097"/><path d="M405.643 184.355c0 .035.019.07.056.087l1.397.643a.413.413 0 0 0 .333.005l1.975-.848a.099.099 0 0 0 0-.182l-1.383-.651a.348.348 0 0 0-.285-.006l-2.036.867a.09.09 0 0 0-.055.064.084.084 0 0 0-.002.021Z" fill="#fff" fill-rule="evenodd" data-name="パス 101098"/><path d="M402.447 185.829c0 .034.02.068.057.086l1.397.643a.41.41 0 0 0 .333.005l1.975-.848a.099.099 0 0 0 .06-.073.101.101 0 0 0-.06-.109l-1.383-.65a.348.348 0 0 0-.285-.007l-2.036.867a.09.09 0 0 0-.055.065.078.078 0 0 0-.003.02Z" fill="#fff" fill-rule="evenodd" data-name="パス 101099"/><path d="M399.252 187.302c0 .034.02.069.057.087l1.397.642a.411.411 0 0 0 .333.006l1.975-.848a.099.099 0 0 0 .06-.074.1.1 0 0 0-.06-.109l-1.384-.65a.349.349 0 0 0-.284-.006l-2.036.867a.09.09 0 0 0-.055.064.083.083 0 0 0-.003.02Z" fill="#fff" fill-rule="evenodd" data-name="パス 101100"/><path d="M396.057 188.775c0 .034.02.07.057.087l1.397.642a.41.41 0 0 0 .333.006l1.974-.848a.098.098 0 0 0 .001-.182l-1.384-.651a.349.349 0 0 0-.284-.006l-2.036.867a.09.09 0 0 0-.055.064.075.075 0 0 0-.003.021Z" fill="#fff" fill-rule="evenodd" data-name="パス 101101"/></g><g data-name="グループ 47717"><path d="M440.032 170.786c0 .034.019.069.056.087l1.397.642a.411.411 0 0 0 .333.006l1.975-.848a.098.098 0 0 0 0-.182l-1.383-.651a.349.349 0 0 0-.285-.006l-2.036.867a.09.09 0 0 0-.057.085Z" fill="#fff" fill-rule="evenodd" data-name="パス 101102"/><path d="M436.836 172.26c0 .034.02.068.057.086l1.397.642a.41.41 0 0 0 .333.006l1.975-.848a.099.099 0 0 0 .06-.073.101.101 0 0 0-.06-.11l-1.383-.65a.348.348 0 0 0-.285-.006l-2.036.867a.09.09 0 0 0-.055.064.083.083 0 0 0-.003.021Z" fill="#fff" fill-rule="evenodd" data-name="パス 101103"/><path d="M433.641 173.732c0 .035.02.07.057.087l1.397.643a.408.408 0 0 0 .333.005l1.975-.848a.099.099 0 0 0 .06-.073.1.1 0 0 0-.06-.109l-1.383-.65a.348.348 0 0 0-.285-.007l-2.036.867a.09.09 0 0 0-.058.085Z" fill="#fff" fill-rule="evenodd" data-name="パス 101104"/><path d="M430.446 175.206c0 .034.02.069.057.086l1.397.643a.409.409 0 0 0 .333.005l1.975-.847a.099.099 0 0 0 .06-.074.1.1 0 0 0-.06-.109l-1.384-.65a.348.348 0 0 0-.284-.006l-2.036.867a.09.09 0 0 0-.055.064.085.085 0 0 0-.003.02Z" fill="#fff" fill-rule="evenodd" data-name="パス 101105"/><path d="M427.251 176.68c0 .033.02.068.057.086l1.397.642a.412.412 0 0 0 .333.006l1.974-.848a.099.099 0 0 0 .06-.074.1.1 0 0 0-.059-.108l-1.384-.651a.349.349 0 0 0-.284-.006l-2.036.867a.09.09 0 0 0-.058.085Z" fill="#fff" fill-rule="evenodd" data-name="パス 101106"/><path d="M424.056 178.152c0 .035.02.07.057.087l1.397.642a.406.406 0 0 0 .333.006l1.974-.848a.098.098 0 0 0 .001-.182l-1.384-.65a.348.348 0 0 0-.284-.007l-2.036.867a.09.09 0 0 0-.055.064.082.082 0 0 0-.003.021Z" fill="#fff" fill-rule="evenodd" data-name="パス 101107"/><path d="M420.861 179.625c0 .035.02.07.057.087l1.397.643a.41.41 0 0 0 .333.005l1.974-.848a.098.098 0 0 0 .001-.182l-1.384-.65a.349.349 0 0 0-.284-.007l-2.036.867a.091.091 0 0 0-.058.085Z" fill="#fff" fill-rule="evenodd" data-name="パス 101108"/><path d="M417.666 181.099c0 .034.02.069.057.086l1.397.643a.41.41 0 0 0 .333.006l1.974-.848a.098.098 0 0 0 .001-.182l-1.384-.651a.349.349 0 0 0-.284-.006l-2.036.867a.09.09 0 0 0-.055.064.083.083 0 0 0-.003.02Z" fill="#fff" fill-rule="evenodd" data-name="パス 101109"/><path d="M414.471 182.572c0 .034.02.069.057.087l1.397.642a.411.411 0 0 0 .333.006l1.974-.848a.099.099 0 0 0 .06-.074.1.1 0 0 0-.059-.108l-1.384-.651a.348.348 0 0 0-.284-.006l-2.036.867a.091.091 0 0 0-.058.085Z" fill="#fff" fill-rule="evenodd" data-name="パス 101110"/><path d="M411.276 184.045c0 .035.02.07.057.087l1.397.643a.406.406 0 0 0 .333.005l1.974-.848a.099.099 0 0 0 .06-.073.101.101 0 0 0-.059-.11l-1.384-.65a.348.348 0 0 0-.284-.006l-2.036.867a.09.09 0 0 0-.055.064.084.084 0 0 0-.003.021Z" fill="#fff" fill-rule="evenodd" data-name="パス 101111"/><path d="M408.081 185.518c0 .035.02.07.057.087l1.397.643a.411.411 0 0 0 .333.005l1.974-.848a.099.099 0 0 0 .06-.073.1.1 0 0 0-.06-.109l-1.383-.65a.349.349 0 0 0-.284-.007l-2.036.867a.09.09 0 0 0-.058.085Z" fill="#fff" fill-rule="evenodd" data-name="パス 101112"/><path d="M404.886 186.992c0 .034.019.069.057.086l1.397.643a.41.41 0 0 0 .333.005l1.974-.847a.099.099 0 0 0 .06-.074.1.1 0 0 0-.06-.109l-1.383-.65a.349.349 0 0 0-.284-.006l-2.037.867a.09.09 0 0 0-.054.064.082.082 0 0 0-.003.02Z" fill="#fff" fill-rule="evenodd" data-name="パス 101113"/><path d="M401.69 188.465c0 .034.02.069.058.087l1.397.642a.41.41 0 0 0 .333.006l1.974-.848a.099.099 0 0 0 0-.182l-1.383-.651a.348.348 0 0 0-.284-.006l-2.037.867a.09.09 0 0 0-.054.064.081.081 0 0 0-.003.021Z" fill="#fff" fill-rule="evenodd" data-name="パス 101114"/><path d="M398.496 189.938c0 .035.019.07.057.087l1.397.643a.407.407 0 0 0 .333.005l1.974-.848a.098.098 0 0 0 0-.182l-1.383-.65a.349.349 0 0 0-.284-.007l-2.037.867a.09.09 0 0 0-.054.064.085.085 0 0 0-.003.021Z" fill="#fff" fill-rule="evenodd" data-name="パス 101115"/></g></g><path d="M421.71 187.364c0 .25.137.5.411.628l10.119 4.655c.323.15.667.24 1.015.266.476.04.957-.035 1.398-.226l14.3-6.142a.714.714 0 0 0 .432-.533.73.73 0 0 0-.425-.787l-10.024-4.715a2.523 2.523 0 0 0-2.06-.043l-14.75 6.28a.654.654 0 0 0-.397.466.588.588 0 0 0-.02.151Z" fill="#fff" fill-rule="evenodd" data-name="パス 101116"/></g></g><g data-name="グループ 47721"><path d="M383.251 142.205v31.486a1.426 1.426 0 0 0 2.03 1.294l37.552-17.543a2.733 2.733 0 0 0 1.578-2.478v-30.64a1.774 1.774 0 0 0-2.525-1.606l-37.33 17.439a2.262 2.262 0 0 0-1.305 2.048Z" fill="#fff" fill-rule="evenodd" data-name="パス 101117"/><path d="m388.25 156.582-.364-.8 33.528-15.107.07.8-33.234 15.107Z" fill="#fff" fill-rule="evenodd" data-name="パス 101118"/><path d="m404.438 164.477-.88.293v-30.602l.88-.293v30.602Z" fill="#fff" fill-rule="evenodd" data-name="パス 101119"/><path d="M413.546 134.531a.757.757 0 1 1 0 .1z" fill="#fff" fill-rule="evenodd" data-name="楕円形 2395"/><path d="M410.52 132.037a.757.757 0 1 1 0 .1z" fill="#fff" fill-rule="evenodd" data-name="楕円形 2396"/><path d="M417.139 148.693a.757.757 0 1 1 0 .1z" fill="#fff" fill-rule="evenodd" data-name="楕円形 2397"/><path d="M398.725 146.174a.757.757 0 1 1 0 .1z" fill="#fff" fill-rule="evenodd" data-name="楕円形 2398"/><path d="M395.512 144.032a.757.757 0 1 1 0 .1z" fill="#fff" fill-rule="evenodd" data-name="楕円形 2399"/><path d="M398.818 159.948a.757.757 0 1 1 0 .1z" fill="#fff" fill-rule="evenodd" data-name="楕円形 2400"/><path d="M395.76 162.509a.757.757 0 1 1 0 .1z" fill="#fff" fill-rule="evenodd" data-name="楕円形 2401"/><path d="M396.269 157.237a.757.757 0 1 1 0 .1z" fill="#fff" fill-rule="evenodd" data-name="楕円形 2402"/><path d="M408.479 154.304a.757.757 0 1 1 0 .1z" fill="#fff" fill-rule="evenodd" data-name="楕円形 2403"/><path d="M407.272 154.304a2.025 2.025 0 1 1 0 .1z" fill="#e2e100" fill-rule="evenodd" data-name="楕円形 2404"/></g><g data-name="グループ 47722"><path d="m353.114 188.09 41.707-19.191a2.07 2.07 0 0 0 1.217-1.885v-15.862a2.069 2.069 0 0 0-2.922-1.885l-41.708 19.19a2.07 2.07 0 0 0-1.216 1.885v15.862a2.07 2.07 0 0 0 2.922 1.885Z" fill="#eaf1f7" fill-rule="evenodd" data-name="パス 101120"/><path d="m392.395 154.106-19.518 8.461v-1.338l19.518-8.462v1.339Z" fill="#1788dd" fill-rule="evenodd" data-name="パス 101121"/><path d="m392.395 157.973-37.159 16.923v-1.338l37.16-16.924v1.339Z" fill="#1788dd" fill-rule="evenodd" data-name="パス 101122"/><path d="m392.395 161.914-28.97 12.765v-1.339l28.97-12.765v1.339Z" fill="#1788dd" fill-rule="evenodd" data-name="パス 101123"/><path d="m392.395 165.78-34.226 15.066v-1.339l34.226-15.065v1.339Z" fill="#1788dd" fill-rule="evenodd" data-name="パス 101124"/><g data-name="楕円形 2405"><path d="M380.769 157.865a1.241 1.241 0 1 1 0 .1z" fill="#e2e100" fill-rule="evenodd"/><path d="M380.769 157.865a1.241 1.241 0 1 1 0 .1z" stroke-linejoin="round" stroke-linecap="round" stroke-width=".44" stroke="#e2e100" fill="transparent"/></g><g data-name="楕円形 2406"><path d="M365.069 168.89a1.753 1.753 0 1 1 0 .1z" fill="#e2e100" fill-rule="evenodd"/><path d="M365.069 168.89a1.753 1.753 0 1 1 0 .1z" stroke-linejoin="round" stroke-linecap="round" stroke-width=".44" stroke="#e2e100" fill="transparent"/></g><g data-name="楕円形 2407"><path d="M377.326 167.007a1.233 1.233 0 1 1 0 .1z" fill="#e2e100" fill-rule="evenodd"/><path d="M377.326 167.007a1.233 1.233 0 1 1 0 .1z" stroke-linejoin="round" stroke-linecap="round" stroke-width=".44" stroke="#e2e100" fill="transparent"/></g><g data-name="楕円形 2408"><path d="M362.604 177.917a1.031 1.031 0 1 1 0 .1z" fill="#e2e100" fill-rule="evenodd"/><path d="M362.604 177.917a1.031 1.031 0 1 1 0 .1z" stroke-linejoin="round" stroke-linecap="round" stroke-width=".44" stroke="#e2e100" fill="transparent"/></g><path d="m360.232 167.084 7.638-3.28 1.039.767v-5.365l-8.677 4.012v3.866Z" fill="#e2e100" fill-rule="evenodd" data-name="パス 101125"/></g><g data-name="グループ 47723"><path d="m348.48 163.483 50.789-22.98a2.07 2.07 0 0 0 1.216-1.885V100.17a2.07 2.07 0 0 0-2.922-1.885l-50.789 22.98a2.07 2.07 0 0 0-1.216 1.885v38.448a2.07 2.07 0 0 0 2.922 1.885Z" fill="#eaf1f7" fill-rule="evenodd" data-name="パス 101126"/><path d="m398.119 127.407-48.367 22.028v-26.362l48.367-22.028v26.362Z" fill="#1788dd" fill-rule="evenodd" data-name="パス 101127"/><path d="m392.515 134.977-37.16 16.923v-1.778l37.16-16.924v1.779Z" fill="#1788dd" fill-rule="evenodd" data-name="パス 101128"/><path d="m392.515 138.999-19.494 8.84v-1.778l19.494-8.84v1.778Z" fill="#1788dd" fill-rule="evenodd" data-name="パス 101129"/></g><g data-name="グループ 47726"><path d="m452.524 139.836-22.008 10.13c-1.42.72-3.098-.31-3.098-1.902v-44.363c0-1.464.823-2.804 2.129-3.466l21.048-9.645c1.419-.719 3.097.312 3.097 1.903v45.44c0 .804-.451 1.54-1.168 1.903Z" fill="#eaf1f7" fill-rule="evenodd" data-name="パス 101130"/><path d="M431.832 112.706c0 4.625 3.749 6.499 8.373 4.187 4.624-2.313 8.373-7.936 8.373-12.56 0-4.624-3.749-6.498-8.373-4.186-4.624 2.312-8.373 7.935-8.373 12.56Zm5.927-5.618a1.116 1.116 0 0 0-.19-.142c.08.02.156.057.19.141v.001Zm-4.979 5.144c0-4.1 3.325-9.086 7.425-11.136 4.1-2.05 7.424-.389 7.424 3.712 0 1.954-.761 4.108-1.996 6.051-.234-2.188-2.072-3.097-4.382-2.167l-.02-.183c.079-.12.143-.226.184-.3.358-.652.254-1.618.254-1.618s.213-.098.441-.398c.169-.221.11-.933-.01-1.262a.682.682 0 0 1 .055.059s.058-.482.003-1.107c-.055-.624-.543-.777-.543-.777s-.047-.55-.909-.597c-.862-.047-2.9.862-3.502 2.178-.602 1.317-.004 2.693-.004 2.693v-.001c0 .399.094.902.261.947.269.072.482-.026.482-.026s.104.966.562 1.244c.055.033.135.077.234.121l.046.431s.03.029.081.065c-1.27 1.043-2.301 2.386-2.767 3.888-.123.4-.046 1.803-.008 2.707-1.995-.334-3.31-1.945-3.31-4.524Zm4.44-5.122.006-.046c0-.003.005-.005.006-.008-.004.018-.008.034-.011.054Zm-.02.245.001-.004v.004Zm4.579-2.413c.002-.005.006-.007.01-.012l-.013.018.003-.006Z" fill="#1788dd" fill-rule="evenodd" data-name="パス 101131"/><g data-name="グループ 47724"><path d="m436.462 127.595 9.717-4.556c.4-.186.727-.664.727-1.063 0-.4-.327-.575-.727-.39l-9.717 4.557c-.4.185-.727.663-.727 1.063 0 .399.327.574.727.39Z" fill="#1788dd" fill-rule="evenodd" data-name="パス 101132"/><path d="m436.462 136.454 9.717-4.557c.4-.185.727-.663.727-1.063 0-.399-.327-.574-.727-.39l-9.717 4.558c-.4.185-.727.663-.727 1.062 0 .4.327.575.727.39Z" fill="#1788dd" fill-rule="evenodd" data-name="パス 101133"/><path d="m434.034 133.467 13.63-6.47c.398-.184.725-.662.725-1.062s-.327-.575-.726-.39l-13.63 6.47c-.399.185-.725.664-.725 1.063 0 .4.326.575.726.39Z" fill="#1788dd" fill-rule="evenodd" data-name="パス 101134"/></g><g data-name="グループ 47725"><path d="M443.167 137.998c0 .258.21.363.467.234.258-.13.467-.443.467-.701 0-.258-.209-.363-.467-.234-.258.13-.467.443-.467.701Z" fill="#fdfdfd" fill-rule="evenodd" data-name="パス 101135"/><path d="M441.7 138.716c0 .258.21.362.467.233.258-.129.467-.443.467-.7 0-.259-.209-.363-.467-.234-.258.129-.467.443-.467.7Z" fill="#fdfdfd" fill-rule="evenodd" data-name="パス 101136"/><path d="M440.233 139.433c0 .258.21.363.468.234.258-.13.467-.443.467-.701 0-.258-.21-.363-.467-.234-.258.13-.468.443-.468.701Z" fill="#fdfdfd" fill-rule="evenodd" data-name="パス 101137"/></g></g></g></g><defs><linearGradient x1="3.76" y1="-.183" x2="4.068" y2=".809" id="a"><stop stop-color="#2c9dbc" offset="0"/><stop stop-color="#1788dd" offset=".992"/></linearGradient></defs></svg>