<svg width="62" height="62" viewBox="0 0 62 62" fill="none" xmlns="http://www.w3.org/2000/svg">
<g filter="url(#filter0_d_3_2293)">
<path d="M24.009 37.5451L24.0196 37.5774H24.1663L24.1549 37.5447L24.009 37.5451Z" fill="black"/>
<path d="M24.3636 37.544L24.2678 37.5774H37.5808L37.606 37.5025L24.3636 37.544Z" fill="black"/>
<path d="M21.9563 31.2476L23.681 36.5387L23.8035 36.5383L21.9563 31.2476Z" fill="black"/>
<path d="M45.7783 4.82517L31.6462 15.2453L56.7532 33.8389C57.3563 31.6185 57.6827 29.2847 57.6827 26.8743C57.6827 17.653 52.9726 9.53318 45.8274 4.78555L45.7763 4.82248L45.7783 4.82517Z" fill="#1788DD"/>
<path d="M45.8274 4.78555C45.781 4.75465 45.7313 4.72846 45.6843 4.69757L45.7763 4.82249L45.8274 4.78555Z" fill="#E73E8F"/>
<path d="M44.9039 4.21871C40.8991 1.78679 36.2085 0.372375 31.1815 0.372375C24.7884 0.372375 18.9293 2.64109 14.3516 6.41085L19.9978 22.582L44.9039 4.21871Z" fill="#E73E8F"/>
<path d="M33.3508 53.2861C44.2417 52.4036 53.2702 44.9366 56.4523 34.8698L42.9321 24.8513L33.3508 53.2861Z" fill="#E3E100"/>
<path d="M6.94238 37.5986C11.06 46.8917 20.3626 53.3754 31.1816 53.3754C31.5443 53.3754 31.9056 53.3674 32.2649 53.3526L37.5807 37.5777L6.94238 37.5986Z" fill="#00AA9F"/>
<path d="M13.5322 7.11806C8.10357 11.9705 4.67969 19.0197 4.67969 26.8742C4.67969 30.3062 5.33854 33.5823 6.52662 36.5925L23.681 36.5388L13.5322 7.11806Z" fill="#0000D4"/>
<path d="M24.1548 37.5447L24.1662 37.5774H24.2678L24.3636 37.544L24.1548 37.5447Z" fill="white"/>
<path d="M24.1773 37.609L24.2678 37.5774H24.1663L24.1773 37.609Z" fill="white"/>
<path d="M42.918 24.8413L33.2998 53.2908C33.3173 53.2895 33.3341 53.2875 33.3508 53.2861L42.9321 24.8513L42.918 24.8413Z" fill="white"/>
<path d="M6.93237 37.5777L6.94245 37.5986L13.6922 37.5777H6.93237Z" fill="white"/>
<path d="M42.9321 24.8515L43.0008 24.6477L42.9854 24.6425L42.9182 24.8412L42.9321 24.8515Z" fill="white"/>
</g>
<defs>
<filter id="filter0_d_3_2293" x="0.679688" y="0.372375" width="61.0029" height="61.0031" filterUnits="userSpaceOnUse" color-interpolation-filters="sRGB">
<feFlood flood-opacity="0" result="BackgroundImageFix"/>
<feColorMatrix in="SourceAlpha" type="matrix" values="0 0 0 0 0 0 0 0 0 0 0 0 0 0 0 0 0 0 127 0" result="hardAlpha"/>
<feOffset dy="4"/>
<feGaussianBlur stdDeviation="2"/>
<feComposite in2="hardAlpha" operator="out"/>
<feColorMatrix type="matrix" values="0 0 0 0 0 0 0 0 0 0 0 0 0 0 0 0 0 0 0.25 0"/>
<feBlend mode="normal" in2="BackgroundImageFix" result="effect1_dropShadow_3_2293"/>
<feBlend mode="normal" in="SourceGraphic" in2="effect1_dropShadow_3_2293" result="shape"/>
</filter>
</defs>
</svg>
