<svg width="168" height="62" viewBox="0 0 168 62" fill="none" xmlns="http://www.w3.org/2000/svg">
<path d="M80.2005 15.5576C80.2005 16.61 79.9843 17.5254 79.5531 18.3031C79.1219 19.0822 78.5537 19.7236 77.8492 20.2286C77.1434 20.7337 76.3287 21.1125 75.4025 21.3657C74.4764 21.6175 73.5186 21.7438 72.53 21.7438C71.5622 21.7438 70.5985 21.676 69.6421 21.5396C68.6837 21.4019 67.7529 21.1655 66.8482 20.8291L67.004 17.8934C67.824 18.3568 68.6824 18.6826 69.577 18.872C70.4709 19.0614 71.3923 19.1561 72.3393 19.1561C72.9081 19.1561 73.4548 19.0929 73.9814 18.9667C74.5073 18.8397 74.97 18.6356 75.3703 18.3508C75.7699 18.0667 76.0916 17.704 76.3334 17.2621C76.5758 16.8195 76.6967 16.2836 76.6967 15.6523C76.6967 15.2103 76.5859 14.8161 76.3649 14.4682C76.144 14.121 75.8491 13.806 75.4818 13.5212C75.1131 13.2371 74.7081 12.9745 74.2662 12.7321C73.8242 12.4903 73.3823 12.264 72.9404 12.0531L70.7946 10.9805C70.2257 10.7072 69.6938 10.4076 69.2002 10.0812C68.7045 9.75482 68.2733 9.3861 67.906 8.97642C67.5372 8.56606 67.2478 8.09795 67.0376 7.5714C66.8267 7.0462 66.7219 6.44578 66.7219 5.77282C66.7219 4.74189 66.9529 3.86275 67.417 3.13674C67.8791 2.41072 68.4789 1.81701 69.2156 1.35293C69.9524 0.890859 70.7724 0.553709 71.6778 0.342823C72.5824 0.132608 73.4878 0.0278358 74.3924 0.0278358C75.1917 0.0278358 75.9868 0.0802217 76.7753 0.185665C77.5644 0.291108 78.3381 0.459012 79.0957 0.690718L78.9057 3.46851C78.2515 3.15218 77.5329 2.93189 76.7518 2.80496C75.9707 2.67869 75.2205 2.61556 74.5032 2.61556C73.9955 2.61556 73.4831 2.66325 72.9666 2.75795C72.4481 2.85264 71.9786 3.01585 71.5562 3.24688C71.1344 3.47859 70.7912 3.7835 70.5266 4.16229C70.2627 4.54108 70.131 5.02531 70.131 5.61432C70.131 6.0146 70.2257 6.3672 70.4165 6.67211C70.6059 6.97769 70.8483 7.25641 71.1445 7.50827C71.44 7.76147 71.7825 7.9878 72.1734 8.18727C72.5636 8.38741 72.9491 8.58151 73.3293 8.77157L75.5778 9.84414C76.2105 10.139 76.8069 10.4553 77.367 10.7911C77.9258 11.1283 78.4161 11.5225 78.8392 11.9752C79.2609 12.4278 79.5927 12.943 79.8358 13.5212C80.0783 14.1008 80.2005 14.7798 80.2005 15.5576Z" fill="#142A4D"/>
<path d="M102.155 21.3972L100.135 15.8725H90.3815L88.2988 21.3972H84.9529L93.1593 0.342823H97.4838L105.754 21.3972H102.155ZM95.2742 2.80496L91.2338 13.3795H99.2824L95.2742 2.80496Z" fill="#142A4D"/>
<path d="M113.328 21.3972V0.342823H116.737V18.5563H125.48V21.3972H113.328Z" fill="#142A4D"/>
<path d="M133.624 21.3972V0.342823H145.745V2.90033H137.033V9.40222H145.334V11.8959H137.033V18.8397H146.061V21.3972H133.624Z" fill="#142A4D"/>
<path d="M168 15.5576C168 16.61 167.784 17.5254 167.352 18.3031C166.921 19.0822 166.353 19.7236 165.649 20.2286C164.943 20.7337 164.128 21.1125 163.202 21.3657C162.276 21.6175 161.319 21.7438 160.329 21.7438C159.362 21.7438 158.399 21.676 157.441 21.5396C156.484 21.4019 155.553 21.1655 154.648 20.8291L154.803 17.8934C155.623 18.3568 156.482 18.6826 157.376 18.872C158.271 19.0614 159.192 19.1561 160.139 19.1561C160.708 19.1561 161.255 19.0929 161.781 18.9667C162.307 18.8397 162.77 18.6356 163.17 18.3508C163.57 18.0667 163.891 17.704 164.133 17.2621C164.375 16.8195 164.496 16.2836 164.496 15.6523C164.496 15.2103 164.386 14.8161 164.164 14.4682C163.944 14.121 163.648 13.806 163.281 13.5212C162.912 13.2371 162.508 12.9745 162.066 12.7321C161.624 12.4903 161.182 12.264 160.74 12.0531L158.594 10.9805C158.025 10.7072 157.493 10.4076 157 10.0812C156.505 9.75482 156.073 9.3861 155.705 8.97642C155.337 8.56606 155.048 8.09795 154.838 7.5714C154.627 7.0462 154.521 6.44578 154.521 5.77282C154.521 4.74189 154.753 3.86275 155.216 3.13674C155.678 2.41072 156.278 1.81701 157.015 1.35293C157.752 0.890859 158.572 0.553709 159.477 0.342823C160.382 0.132608 161.287 0.0278358 162.192 0.0278358C162.991 0.0278358 163.786 0.0802217 164.575 0.185665C165.364 0.291108 166.138 0.459012 166.895 0.690718L166.706 3.46851C166.051 3.15218 165.333 2.93189 164.551 2.80496C163.77 2.67869 163.02 2.61556 162.303 2.61556C161.796 2.61556 161.283 2.66325 160.766 2.75795C160.248 2.85264 159.779 3.01585 159.356 3.24688C158.934 3.47859 158.591 3.7835 158.327 4.16229C158.062 4.54108 157.93 5.02531 157.93 5.61432C157.93 6.0146 158.025 6.3672 158.216 6.67211C158.406 6.97769 158.648 7.25641 158.944 7.50827C159.239 7.76147 159.582 7.9878 159.973 8.18727C160.364 8.38741 160.749 8.58151 161.129 8.77157L163.377 9.84414C164.01 10.139 164.606 10.4553 165.166 10.7911C165.725 11.1283 166.216 11.5225 166.639 11.9752C167.06 12.4278 167.392 12.943 167.635 13.5212C167.878 14.1008 168 14.7798 168 15.5576Z" fill="#142A4D"/>
<path d="M80.1999 47.9549C80.1999 49.0073 79.9843 49.9227 79.5524 50.7011C79.1212 51.4802 78.5531 52.1215 77.8485 52.6266C77.1434 53.1317 76.328 53.5104 75.4019 53.7623C74.4764 54.0155 73.5186 54.1411 72.53 54.1411C71.5616 54.1411 70.5985 54.0726 69.6421 53.9362C68.6837 53.7986 67.7529 53.5628 66.8482 53.2257L67.004 50.2907C67.824 50.7535 68.6824 51.0799 69.5763 51.2693C70.4709 51.458 71.3923 51.5534 72.3393 51.5534C72.9081 51.5534 73.4548 51.4902 73.9807 51.3633C74.5066 51.2377 74.97 51.0322 75.3696 50.7481C75.7699 50.464 76.0916 50.1013 76.3327 49.6594C76.5752 49.2175 76.6967 48.6809 76.6967 48.0489C76.6967 47.6083 76.5859 47.2127 76.3643 46.8655C76.144 46.5189 75.8491 46.2033 75.4811 45.9192C75.1131 45.6351 74.7081 45.3725 74.2662 45.1301C73.8242 44.8883 73.3823 44.6619 72.9404 44.451L70.7939 43.3785C70.2251 43.1051 69.6938 42.8056 69.2002 42.4785C68.7045 42.1528 68.2733 41.7841 67.906 41.3737C67.5372 40.9634 67.2478 40.4952 67.0376 39.9694C66.8267 39.4435 66.7219 38.8438 66.7219 38.1701C66.7219 37.1392 66.9529 36.2607 67.417 35.5347C67.8791 34.8087 68.4782 34.2143 69.2156 33.7516C69.9524 33.2882 70.7724 32.9517 71.6771 32.7415C72.5824 32.5312 73.4871 32.4251 74.3924 32.4251C75.191 32.4251 75.9862 32.4789 76.7746 32.5836C77.5644 32.6891 78.3375 32.857 79.0951 33.0887L78.9057 35.8658C78.2508 35.5508 77.5329 35.3292 76.7511 35.2029C75.97 35.0773 75.2205 35.0142 74.5025 35.0142C73.9955 35.0142 73.4831 35.0612 72.9659 35.1552C72.4481 35.2506 71.9786 35.4138 71.5562 35.6448C71.1344 35.8772 70.7912 36.1815 70.5266 36.5603C70.2627 36.9397 70.131 37.4233 70.131 38.0123C70.131 38.4126 70.2251 38.7645 70.4158 39.0694C70.6059 39.375 70.8483 39.6537 71.1438 39.9062C71.44 40.1588 71.7825 40.3844 72.1734 40.5852C72.5636 40.7847 72.9491 40.9795 73.3286 41.1682L75.5771 42.2414C76.2098 42.5363 76.8062 42.8526 77.3663 43.1884C77.9251 43.5256 78.4161 43.9205 78.8385 44.3718C79.2603 44.8251 79.592 45.3409 79.8352 45.9192C80.0777 46.4981 80.1999 47.1765 80.1999 47.9549Z" fill="#142A4D"/>
<path d="M101.433 53.2257C100.696 53.5628 99.8602 53.7986 98.9232 53.9362C97.987 54.0726 97.1085 54.1411 96.2878 54.1411C94.6041 54.1411 93.0789 53.8939 91.7115 53.3996C90.3434 52.9053 89.1755 52.1901 88.2083 51.2538C87.2392 50.3169 86.4877 49.1758 85.9504 47.8286C85.4144 46.4827 85.1458 44.9668 85.1458 43.2838C85.1458 41.6847 85.4245 40.2165 85.9819 38.88C86.5394 37.5442 87.3131 36.3971 88.3024 35.44C89.2916 34.4823 90.465 33.7408 91.8216 33.215C93.179 32.6891 94.6672 32.4251 96.2878 32.4251C97.0878 32.4251 97.9501 32.4883 98.8769 32.6152C99.8017 32.7415 100.633 32.9416 101.37 33.215L101.18 35.9927C100.528 35.6979 99.797 35.4769 98.9864 35.3292C98.1764 35.1821 97.4027 35.1089 96.6667 35.1089C95.4248 35.1089 94.3153 35.3137 93.3374 35.7241C92.3589 36.1338 91.5321 36.7027 90.8592 37.4287C90.1849 38.1547 89.665 39.0177 89.2963 40.0164C88.9283 41.0164 88.7443 42.1051 88.7443 43.2838C88.7443 44.5041 88.9182 45.6143 89.2648 46.6136C89.6127 47.613 90.1224 48.4707 90.7961 49.1859C91.469 49.9012 92.2897 50.4593 93.2582 50.8582C94.226 51.2585 95.3409 51.458 96.6035 51.458C97.4027 51.458 98.1979 51.3902 98.9864 51.2538C99.7762 51.1161 100.528 50.8797 101.243 50.5433L101.433 53.2257Z" fill="#142A4D"/>
<path d="M127.344 43.2838C127.344 44.8198 127.133 46.2456 126.713 47.5606C126.291 48.8756 125.671 50.0221 124.851 51.0006C124.029 51.9792 123.003 52.7475 121.773 53.3049C120.542 53.8617 119.116 54.1411 117.497 54.1411C115.854 54.1411 114.418 53.8677 113.187 53.3204C111.956 52.7737 110.931 52.0161 110.109 51.0483C109.289 50.0805 108.674 48.9334 108.263 47.6083C107.853 46.2819 107.648 44.8406 107.648 43.2838C107.648 41.7679 107.857 40.3535 108.279 39.0378C108.7 37.7235 109.326 36.5757 110.157 35.5972C110.988 34.6193 112.014 33.8456 113.235 33.2781C114.455 32.7099 115.875 32.4251 117.497 32.4251C119.137 32.4251 120.573 32.6992 121.804 33.2465C123.035 33.7932 124.061 34.5515 124.882 35.5193C125.702 36.4871 126.317 37.6335 126.728 38.9593C127.139 40.2844 127.344 41.727 127.344 43.2838ZM123.745 43.2838C123.745 42.2945 123.635 41.3106 123.414 40.332C123.193 39.3535 122.835 38.4697 122.341 37.6812C121.847 36.892 121.204 36.2506 120.415 35.7557C119.626 35.2613 118.653 35.0142 117.497 35.0142C116.359 35.0142 115.397 35.2661 114.608 35.7711C113.818 36.2762 113.177 36.9236 112.682 37.7127C112.188 38.5012 111.825 39.3851 111.593 40.3636C111.361 41.3421 111.246 42.316 111.246 43.2838C111.246 44.2516 111.361 45.2247 111.593 46.2033C111.825 47.1811 112.193 48.0657 112.699 48.8548C113.204 49.6433 113.85 50.2907 114.639 50.7958C115.429 51.3008 116.38 51.5534 117.497 51.5534C118.653 51.5534 119.626 51.3062 120.415 50.8119C121.204 50.3169 121.847 49.6749 122.341 48.8864C122.835 48.0966 123.193 47.2127 123.414 46.2342C123.635 45.2563 123.745 44.2724 123.745 43.2838Z" fill="#142A4D"/>
<path d="M144.72 53.7939L142.133 47.2604C141.922 46.7345 141.718 46.2926 141.519 45.9346C141.32 45.5773 141.09 45.2933 140.828 45.0824C140.567 44.8722 140.238 44.7251 139.84 44.6405C139.443 44.5572 138.952 44.5142 138.366 44.5142H136.672V53.7939H133.263V32.7415H140.27C141.154 32.7415 142.006 32.8415 142.826 33.0417C143.648 33.2412 144.373 33.5582 145.005 33.9893C145.636 34.4218 146.141 34.9907 146.52 35.6966C146.899 36.4031 147.088 37.2621 147.088 38.2735C147.088 38.9687 146.962 39.6013 146.709 40.1695C146.457 40.7397 146.109 41.234 145.667 41.6558C145.225 42.0776 144.71 42.4248 144.121 42.6988C143.531 42.9735 142.911 43.1629 142.259 43.2677C143.122 43.4356 143.773 43.7613 144.215 44.2442C144.658 44.7278 145.037 45.3584 145.352 46.1348L148.477 53.7939H144.72ZM143.585 38.5328C143.585 37.8565 143.458 37.3017 143.207 36.8685C142.955 36.4347 142.621 36.0962 142.202 35.8531C141.783 35.6106 141.29 35.4467 140.725 35.3614C140.16 35.2768 139.562 35.2345 138.934 35.2345H136.672V42.0211H138.809C139.374 42.0211 139.945 41.9681 140.521 41.8626C141.097 41.7565 141.61 41.5672 142.061 41.2911C142.511 41.0164 142.877 40.6571 143.16 40.2132C143.443 39.7699 143.585 39.2091 143.585 38.5328Z" fill="#142A4D"/>
<path d="M155.005 53.7939V32.7415H167.126V35.2976H158.414V41.8002H166.715V44.2939H158.414V51.2377H167.441V53.7939H155.005Z" fill="#142A4D"/>
<g filter="url(#filter0_d_4_2500)">
<path d="M24.009 37.5451L24.0196 37.5774H24.1663L24.1549 37.5447L24.009 37.5451Z" fill="black"/>
<path d="M24.3636 37.544L24.2678 37.5774H37.5808L37.606 37.5025L24.3636 37.544Z" fill="black"/>
<path d="M21.9563 31.2476L23.681 36.5387L23.8035 36.5383L21.9563 31.2476Z" fill="black"/>
<path d="M45.7783 4.82517L31.6462 15.2453L56.7532 33.8389C57.3563 31.6185 57.6827 29.2847 57.6827 26.8743C57.6827 17.653 52.9726 9.53318 45.8274 4.78555L45.7763 4.82248L45.7783 4.82517Z" fill="#1788DD"/>
<path d="M45.8274 4.78555C45.781 4.75465 45.7313 4.72846 45.6843 4.69757L45.7763 4.82249L45.8274 4.78555Z" fill="#E73E8F"/>
<path d="M44.9039 4.21871C40.8991 1.78679 36.2085 0.372375 31.1815 0.372375C24.7884 0.372375 18.9293 2.64109 14.3516 6.41085L19.9978 22.582L44.9039 4.21871Z" fill="#E73E8F"/>
<path d="M33.3508 53.2861C44.2417 52.4036 53.2702 44.9366 56.4523 34.8698L42.9321 24.8513L33.3508 53.2861Z" fill="#E3E100"/>
<path d="M6.94238 37.5986C11.06 46.8917 20.3626 53.3754 31.1816 53.3754C31.5443 53.3754 31.9056 53.3674 32.2649 53.3526L37.5807 37.5777L6.94238 37.5986Z" fill="#00AA9F"/>
<path d="M13.5322 7.11806C8.10357 11.9705 4.67969 19.0197 4.67969 26.8742C4.67969 30.3062 5.33854 33.5823 6.52662 36.5925L23.681 36.5388L13.5322 7.11806Z" fill="#0000D4"/>
<path d="M24.1548 37.5447L24.1662 37.5774H24.2678L24.3636 37.544L24.1548 37.5447Z" fill="white"/>
<path d="M24.1773 37.609L24.2678 37.5774H24.1663L24.1773 37.609Z" fill="white"/>
<path d="M42.918 24.8413L33.2998 53.2908C33.3173 53.2895 33.3341 53.2875 33.3508 53.2861L42.9321 24.8513L42.918 24.8413Z" fill="white"/>
<path d="M6.93237 37.5777L6.94245 37.5986L13.6922 37.5777H6.93237Z" fill="white"/>
<path d="M42.9321 24.8515L43.0008 24.6477L42.9854 24.6425L42.9182 24.8412L42.9321 24.8515Z" fill="white"/>
</g>
<defs>
<filter id="filter0_d_4_2500" x="0.679688" y="0.372375" width="61.0029" height="61.0031" filterUnits="userSpaceOnUse" color-interpolation-filters="sRGB">
<feFlood flood-opacity="0" result="BackgroundImageFix"/>
<feColorMatrix in="SourceAlpha" type="matrix" values="0 0 0 0 0 0 0 0 0 0 0 0 0 0 0 0 0 0 127 0" result="hardAlpha"/>
<feOffset dy="4"/>
<feGaussianBlur stdDeviation="2"/>
<feComposite in2="hardAlpha" operator="out"/>
<feColorMatrix type="matrix" values="0 0 0 0 0 0 0 0 0 0 0 0 0 0 0 0 0 0 0.25 0"/>
<feBlend mode="normal" in2="BackgroundImageFix" result="effect1_dropShadow_4_2500"/>
<feBlend mode="normal" in="SourceGraphic" in2="effect1_dropShadow_4_2500" result="shape"/>
</filter>
</defs>
</svg>
